<svg width="284" height="158" viewBox="0 0 284 158" fill="none" xmlns="http://www.w3.org/2000/svg">
<path fill-rule="evenodd" clip-rule="evenodd" d="M78.0093 0L0 57.454V14.454L19.6252 0H78.0093ZM205.991 0L284 57.4541V14.4541L264.375 0H205.991ZM284 93.5838L169.279 9.09143C153.056 -2.85713 130.944 -2.85713 114.721 9.09143L0 93.5837V136.584L114.721 52.0914C130.944 40.1429 153.056 40.1429 169.279 52.0914L284 136.584V93.5838ZM264.198 158L169.279 88.0918C153.056 76.1432 130.944 76.1432 114.721 88.0918L19.8018 158H78.1858L114.721 131.092C130.944 119.143 153.056 119.143 169.279 131.092L205.814 158H264.198Z" fill="black" fill-opacity="0.6"/>
</svg>
