<svg width="192" height="197" viewBox="0 0 192 197" fill="none" xmlns="http://www.w3.org/2000/svg">
<rect y="8" width="192" height="115" fill="black"/>
<path d="M89.1293 53.9531H72.331C72.0241 51.7798 71.3977 49.8494 70.4517 48.1619C69.5057 46.4489 68.2912 44.9915 66.8082 43.7898C65.3253 42.5881 63.6122 41.6676 61.669 41.0284C59.7514 40.3892 57.6676 40.0696 55.4176 40.0696C51.3523 40.0696 47.8111 41.0795 44.794 43.0994C41.777 45.0937 39.4375 48.0085 37.7756 51.8438C36.1136 55.6534 35.2827 60.2812 35.2827 65.7273C35.2827 71.3267 36.1136 76.0312 37.7756 79.8409C39.4631 83.6506 41.8153 86.527 44.8324 88.4702C47.8494 90.4134 51.3395 91.3849 55.3026 91.3849C57.527 91.3849 59.5852 91.0909 61.4773 90.5028C63.3949 89.9148 65.0952 89.0582 66.5781 87.9332C68.0611 86.7827 69.2884 85.3892 70.2599 83.7528C71.2571 82.1165 71.9474 80.25 72.331 78.1534L89.1293 78.2301C88.6946 81.8352 87.608 85.3125 85.8693 88.6619C84.1563 91.9858 81.8423 94.9645 78.9276 97.598C76.0384 100.206 72.5866 102.277 68.5724 103.811C64.5838 105.32 60.071 106.074 55.0341 106.074C48.0284 106.074 41.7642 104.489 36.2415 101.318C30.7443 98.1477 26.3977 93.5582 23.2017 87.5497C20.0312 81.5412 18.446 74.267 18.446 65.7273C18.446 57.1619 20.0568 49.875 23.2784 43.8665C26.5 37.858 30.8722 33.2812 36.3949 30.1364C41.9176 26.9659 48.1307 25.3807 55.0341 25.3807C59.5852 25.3807 63.804 26.0199 67.6903 27.2983C71.6023 28.5767 75.0668 30.4432 78.0838 32.8977C81.1009 35.3267 83.5554 38.3054 85.4474 41.8338C87.3651 45.3622 88.5923 49.402 89.1293 53.9531ZM173.217 65.7273C173.217 74.2926 171.593 81.5795 168.346 87.5881C165.124 93.5966 160.727 98.1861 155.153 101.357C149.604 104.501 143.366 106.074 136.437 106.074C129.457 106.074 123.192 104.489 117.644 101.318C112.096 98.1477 107.711 93.5582 104.489 87.5497C101.268 81.5412 99.657 74.267 99.657 65.7273C99.657 57.1619 101.268 49.875 104.489 43.8665C107.711 37.858 112.096 33.2812 117.644 30.1364C123.192 26.9659 129.457 25.3807 136.437 25.3807C143.366 25.3807 149.604 26.9659 155.153 30.1364C160.727 33.2812 165.124 37.858 168.346 43.8665C171.593 49.875 173.217 57.1619 173.217 65.7273ZM156.38 65.7273C156.38 60.179 155.549 55.5 153.887 51.6903C152.251 47.8807 149.937 44.9915 146.945 43.0227C143.954 41.054 140.451 40.0696 136.437 40.0696C132.423 40.0696 128.92 41.054 125.928 43.0227C122.937 44.9915 120.61 47.8807 118.948 51.6903C117.312 55.5 116.494 60.179 116.494 65.7273C116.494 71.2756 117.312 75.9545 118.948 79.7642C120.61 83.5739 122.937 86.4631 125.928 88.4318C128.92 90.4006 132.423 91.3849 136.437 91.3849C140.451 91.3849 143.954 90.4006 146.945 88.4318C149.937 86.4631 152.251 83.5739 153.887 79.7642C155.549 75.9545 156.38 71.2756 156.38 65.7273Z" fill="white"/>
<path d="M37.25 196H14.5625V132H37.4375C43.875 132 49.4167 133.281 54.0625 135.844C58.7083 138.385 62.2813 142.042 64.7813 146.812C67.3021 151.583 68.5625 157.292 68.5625 163.937C68.5625 170.604 67.3021 176.333 64.7813 181.125C62.2813 185.917 58.6875 189.594 54 192.156C49.3333 194.719 43.75 196 37.25 196ZM28.0938 184.406H36.6875C40.6875 184.406 44.0521 183.698 46.7813 182.281C49.5313 180.844 51.5938 178.625 52.9688 175.625C54.3646 172.604 55.0625 168.708 55.0625 163.937C55.0625 159.208 54.3646 155.344 52.9688 152.344C51.5938 149.344 49.5417 147.135 46.8125 145.719C44.0833 144.302 40.7188 143.594 36.7188 143.594H28.0938V184.406ZM78.5859 196V132H121.711V143.156H92.1172V158.406H119.492V169.562H92.1172V184.844H121.836V196H78.5859ZM167.188 150.406C166.938 147.885 165.865 145.927 163.969 144.531C162.073 143.135 159.5 142.437 156.25 142.437C154.042 142.437 152.177 142.75 150.656 143.375C149.135 143.979 147.969 144.823 147.156 145.906C146.365 146.99 145.969 148.219 145.969 149.594C145.927 150.74 146.167 151.74 146.688 152.594C147.229 153.448 147.969 154.187 148.906 154.812C149.844 155.417 150.927 155.948 152.156 156.406C153.385 156.844 154.698 157.219 156.094 157.531L161.844 158.906C164.635 159.531 167.198 160.365 169.531 161.406C171.865 162.448 173.885 163.729 175.594 165.25C177.302 166.771 178.625 168.562 179.563 170.625C180.521 172.687 181.01 175.052 181.031 177.719C181.01 181.635 180.01 185.031 178.031 187.906C176.073 190.76 173.24 192.979 169.531 194.562C165.844 196.125 161.396 196.906 156.188 196.906C151.021 196.906 146.521 196.115 142.688 194.531C138.875 192.948 135.896 190.604 133.75 187.5C131.625 184.375 130.51 180.51 130.406 175.906H143.5C143.646 178.052 144.26 179.844 145.344 181.281C146.448 182.698 147.917 183.771 149.75 184.5C151.604 185.208 153.698 185.562 156.031 185.562C158.323 185.562 160.313 185.229 162 184.562C163.708 183.896 165.031 182.969 165.969 181.781C166.906 180.594 167.375 179.229 167.375 177.687C167.375 176.25 166.948 175.042 166.094 174.062C165.26 173.083 164.031 172.25 162.406 171.562C160.802 170.875 158.833 170.25 156.5 169.687L149.531 167.937C144.135 166.625 139.875 164.573 136.75 161.781C133.625 158.99 132.073 155.229 132.094 150.5C132.073 146.625 133.104 143.24 135.188 140.344C137.292 137.448 140.177 135.187 143.844 133.562C147.51 131.937 151.677 131.125 156.344 131.125C161.094 131.125 165.24 131.937 168.781 133.562C172.344 135.187 175.115 137.448 177.094 140.344C179.073 143.24 180.094 146.594 180.156 150.406H167.188Z" fill="black"/>
</svg>
