<svg width="539" height="539" viewBox="0 0 539 539" fill="none" xmlns="http://www.w3.org/2000/svg">
<rect width="539" height="539" rx="92" fill="white"/>
<path d="M111.408 344.544C96.568 344.544 83.7773 341.364 73.036 335.004C62.2947 328.503 54.0267 319.528 48.232 308.08C42.4373 296.491 39.54 283.205 39.54 268.224C39.54 252.96 42.4373 239.604 48.232 228.156C54.0267 216.567 62.2947 207.521 73.036 201.02C83.7773 194.377 96.568 191.056 111.408 191.056C129.781 191.056 144.763 195.649 156.352 204.836C168.083 214.023 175.361 226.955 178.188 243.632H143.42C141.724 236.141 138.12 230.347 132.608 226.248C127.096 222.008 119.959 219.888 111.196 219.888C102.857 219.888 95.72 221.867 89.784 225.824C83.9893 229.781 79.5373 235.364 76.428 242.572C73.46 249.639 71.976 258.189 71.976 268.224C71.976 277.976 73.46 286.456 76.428 293.664C79.5373 300.731 83.9893 306.243 89.784 310.2C95.72 314.016 102.857 315.924 111.196 315.924C119.959 315.924 127.025 314.087 132.396 310.412C137.908 306.596 141.583 301.155 143.42 294.088H178.188C175.361 309.776 168.083 322.143 156.352 331.188C144.763 340.092 129.781 344.544 111.408 344.544ZM271.074 344.544C256.516 344.544 243.726 341.293 232.702 334.792C221.678 328.291 212.986 319.316 206.626 307.868C200.407 296.279 197.298 282.923 197.298 267.8C197.298 252.677 200.407 239.392 206.626 227.944C212.986 216.355 221.678 207.309 232.702 200.808C243.726 194.307 256.516 191.056 271.074 191.056C285.631 191.056 298.492 194.307 309.658 200.808C320.823 207.309 329.444 216.355 335.522 227.944C341.74 239.392 344.85 252.677 344.85 267.8C344.85 282.923 341.74 296.279 335.522 307.868C329.444 319.316 320.823 328.291 309.658 334.792C298.492 341.293 285.631 344.544 271.074 344.544ZM271.074 315.924C279.695 315.924 287.044 313.945 293.122 309.988C299.34 306.031 304.146 300.519 307.538 293.452C310.93 286.244 312.626 277.693 312.626 267.8C312.626 257.907 310.93 249.427 307.538 242.36C304.146 235.152 299.34 229.64 293.122 225.824C287.044 221.867 279.695 219.888 271.074 219.888C262.735 219.888 255.456 221.867 249.238 225.824C243.019 229.64 238.214 235.152 234.822 242.36C231.43 249.427 229.734 257.907 229.734 267.8C229.734 277.693 231.43 286.244 234.822 293.452C238.214 300.519 243.019 306.031 249.238 309.988C255.456 313.945 262.735 315.924 271.074 315.924ZM368.677 380.796V350.48H493.333V380.796H368.677Z" fill="black"/>
</svg>
