<svg width="747" height="747" viewBox="0 0 747 747" fill="none" xmlns="http://www.w3.org/2000/svg">
<rect width="747" height="747" rx="178" fill="#1E1E1E"/>
<path d="M451.341 454.683L438.397 453.474L436.98 468.637L452.178 467.656L451.341 454.683ZM291.66 290.317L278.716 289.107L277.299 304.27L292.497 303.29L291.66 290.317ZM579 304.5C579 377.414 522.239 437.08 450.503 441.71L452.178 467.656C537.506 462.149 605 391.212 605 304.5H579ZM441.5 167C517.439 167 579 228.561 579 304.5H605C605 214.201 531.799 141 441.5 141V167ZM304.603 291.526C311.132 221.678 369.938 167 441.5 167V141C356.391 141 286.482 206.02 278.716 289.107L304.603 291.526ZM292.497 303.29C295.472 303.098 298.473 303 301.5 303V277C297.914 277 294.354 277.116 290.822 277.344L292.497 303.29ZM301.5 303C377.439 303 439 364.561 439 440.5H465C465 350.201 391.799 277 301.5 277V303ZM439 440.5C439 444.879 438.796 449.206 438.397 453.474L464.284 455.893C464.758 450.823 465 445.688 465 440.5H439Z" fill="white"/>
<circle cx="301.5" cy="440.5" r="150.5" stroke="white" stroke-width="26"/>
<path d="M473.82 272.18L464.627 281.373L464.627 281.373L473.82 272.18ZM473.82 335.82L464.627 326.627L464.627 326.627L473.82 335.82ZM410.18 272.18L400.988 262.988L400.988 262.988L410.18 272.18ZM373.857 308.503L364.665 299.311L352.417 311.558L367.598 319.897L373.857 308.503ZM436.247 373.392L424.615 379.197L432.675 395.349L445.439 382.585L436.247 373.392ZM464.627 281.373C477.124 293.869 477.124 314.131 464.627 326.627L483.012 345.012C505.662 322.362 505.662 285.638 483.012 262.988L464.627 281.373ZM419.372 281.373C431.869 268.876 452.13 268.876 464.627 281.373L483.012 262.988C460.362 240.337 423.638 240.337 400.988 262.988L419.372 281.373ZM383.049 317.696L419.372 281.373L400.988 262.988L364.665 299.311L383.049 317.696ZM367.598 319.897C392.119 333.368 412.095 354.106 424.615 379.197L447.879 367.588C432.992 337.753 409.262 313.12 380.116 297.109L367.598 319.897ZM464.627 326.627L427.055 364.2L445.439 382.585L483.012 345.012L464.627 326.627Z" fill="white"/>
</svg>
