<svg width="867" height="190" viewBox="0 0 867 190" fill="none" xmlns="http://www.w3.org/2000/svg">
<path d="M72.408 153.544C57.568 153.544 44.7773 150.364 34.036 144.004C23.2947 137.503 15.0267 128.528 9.232 117.08C3.43733 105.491 0.54 92.2053 0.54 77.224C0.54 61.96 3.43733 48.604 9.232 37.156C15.0267 25.5667 23.2947 16.5213 34.036 10.02C44.7773 3.37733 57.568 0.0559974 72.408 0.0559974C90.7813 0.0559974 105.763 4.64933 117.352 13.836C129.083 23.0227 136.361 35.9547 139.188 52.632H104.42C102.724 45.1413 99.12 39.3467 93.608 35.248C88.096 31.008 80.9587 28.888 72.196 28.888C63.8573 28.888 56.72 30.8667 50.784 34.824C44.9893 38.7813 40.5373 44.364 37.428 51.572C34.46 58.6387 32.976 67.1893 32.976 77.224C32.976 86.976 34.46 95.456 37.428 102.664C40.5373 109.731 44.9893 115.243 50.784 119.2C56.72 123.016 63.8573 124.924 72.196 124.924C80.9587 124.924 88.0253 123.087 93.396 119.412C98.908 115.596 102.583 110.155 104.42 103.088H139.188C136.361 118.776 129.083 131.143 117.352 140.188C105.763 149.092 90.7813 153.544 72.408 153.544ZM232.074 153.544C217.516 153.544 204.726 150.293 193.702 143.792C182.678 137.291 173.986 128.316 167.626 116.868C161.407 105.279 158.298 91.9227 158.298 76.8C158.298 61.6773 161.407 48.392 167.626 36.944C173.986 25.3547 182.678 16.3093 193.702 9.808C204.726 3.30666 217.516 0.0559974 232.074 0.0559974C246.631 0.0559974 259.492 3.30666 270.658 9.808C281.823 16.3093 290.444 25.3547 296.522 36.944C302.74 48.392 305.85 61.6773 305.85 76.8C305.85 91.9227 302.74 105.279 296.522 116.868C290.444 128.316 281.823 137.291 270.658 143.792C259.492 150.293 246.631 153.544 232.074 153.544ZM232.074 124.924C240.695 124.924 248.044 122.945 254.122 118.988C260.34 115.031 265.146 109.519 268.538 102.452C271.93 95.244 273.626 86.6933 273.626 76.8C273.626 66.9067 271.93 58.4267 268.538 51.36C265.146 44.152 260.34 38.64 254.122 34.824C248.044 30.8667 240.695 28.888 232.074 28.888C223.735 28.888 216.456 30.8667 210.238 34.824C204.019 38.64 199.214 44.152 195.822 51.36C192.43 58.4267 190.734 66.9067 190.734 76.8C190.734 86.6933 192.43 95.244 195.822 102.452C199.214 109.519 204.019 115.031 210.238 118.988C216.456 122.945 223.735 124.924 232.074 124.924ZM329.677 189.796V159.48H454.333V189.796H329.677ZM485.102 151V2.59999H536.618C553.861 2.59999 568.065 5.70933 579.23 11.928C590.537 18.0053 598.876 26.6267 604.246 37.792C609.758 48.816 612.514 61.8187 612.514 76.8C612.514 91.64 609.758 104.643 604.246 115.808C598.876 126.832 590.537 135.453 579.23 141.672C568.065 147.891 553.861 151 536.618 151H485.102ZM516.902 123.652H534.71C546.158 123.652 555.204 121.815 561.846 118.14C568.489 114.324 573.153 108.953 575.838 102.028C578.665 94.9613 580.078 86.552 580.078 76.8C580.078 66.9067 578.665 58.4973 575.838 51.572C573.153 44.5053 568.489 39.1347 561.846 35.46C555.204 31.644 546.158 29.736 534.71 29.736H516.902V123.652ZM636.235 151V2.59999H735.663V28.252H668.035V63.232H729.303V87.824H668.035V125.348H735.663V151H636.235ZM813.02 153.544C802.42 153.544 792.809 151.777 784.188 148.244C775.708 144.569 768.995 139.199 764.048 132.132C759.101 125.065 756.416 116.373 755.992 106.056H789.912C790.053 110.155 791.113 113.759 793.092 116.868C795.071 119.977 797.756 122.451 801.148 124.288C804.54 125.984 808.497 126.832 813.02 126.832C816.836 126.832 820.157 126.267 822.984 125.136C825.952 123.864 828.284 122.097 829.98 119.836C831.676 117.433 832.524 114.465 832.524 110.932C832.524 107.257 831.535 104.148 829.556 101.604C827.577 98.9187 824.892 96.6573 821.5 94.82C818.108 92.8413 814.151 91.0747 809.628 89.52C805.247 87.824 800.512 86.1987 795.424 84.644C783.693 80.828 774.648 75.6693 768.288 69.168C762.069 62.6667 758.96 53.9747 758.96 43.092C758.96 34.0467 761.151 26.344 765.532 19.984C770.055 13.4827 776.203 8.53599 783.976 5.144C791.749 1.752 800.583 0.0559974 810.476 0.0559974C820.652 0.0559974 829.627 1.82266 837.4 5.35599C845.173 8.74799 851.321 13.7653 855.844 20.408C860.367 26.9093 862.769 34.6827 863.052 43.728H828.92C828.779 40.6187 827.86 37.792 826.164 35.248C824.609 32.704 822.419 30.6547 819.592 29.1C816.907 27.5453 813.727 26.768 810.052 26.768C806.801 26.6267 803.833 27.1213 801.148 28.252C798.604 29.2413 796.484 30.8667 794.788 33.128C793.233 35.248 792.456 37.9333 792.456 41.184C792.456 44.2933 793.233 47.0493 794.788 49.452C796.484 51.7133 798.745 53.692 801.572 55.388C804.54 56.9427 807.932 58.4267 811.748 59.84C815.705 61.2533 820.016 62.6667 824.68 64.08C832.171 66.624 839.025 69.6627 845.244 73.196C851.604 76.588 856.692 81.1107 860.508 86.764C864.465 92.276 866.444 99.6253 866.444 108.812C866.444 116.868 864.324 124.288 860.084 131.072C855.985 137.856 849.979 143.297 842.064 147.396C834.291 151.495 824.609 153.544 813.02 153.544Z" fill="black"/>
</svg>
