<svg width="724" height="699" viewBox="0 0 724 699" fill="none" xmlns="http://www.w3.org/2000/svg">
<path opacity="0.999" fill-rule="evenodd" clip-rule="evenodd" d="M436 37C450.141 37.634 464.141 39.467 478 42.5C509.058 52.527 537.391 67.527 563 87.5C626.498 138.302 667.332 203.468 685.5 283C686.667 295.167 687.833 307.333 689 319.5C687.866 330.67 686.7 341.837 685.5 353C682.364 362.741 679.031 372.408 675.5 382C669.92 389.492 664.587 397.159 659.5 405C635.577 423.045 611.743 441.212 588 459.5C579.333 462.5 570.667 465.5 562 468.5C531.28 472.852 501.78 468.685 473.5 456C473.455 464.51 473.955 473.01 475 481.5C473.932 493.01 472.766 504.51 471.5 516C468.03 526.077 464.363 536.077 460.5 546C455.032 554.101 449.199 561.934 443 569.5C421 586.167 399 602.833 377 619.5C365.538 625.098 353.538 629.098 341 631.5C333.83 631.956 326.664 632.456 319.5 633C307.596 631.655 295.763 629.822 284 627.5C272.333 623.167 260.667 618.833 249 614.5C212.197 594.722 179.697 569.222 151.5 538C123.692 504.404 102.025 467.071 86.5 426C83.011 413.043 79.677 400.043 76.5 387C75.333 374.833 74.167 362.667 73 350.5C74.134 339.33 75.3 328.163 76.5 317C79.636 307.259 82.969 297.592 86.5 288C92.08 280.508 97.413 272.841 102.5 265C126.423 246.955 150.257 228.788 174 210.5C182.667 207.5 191.333 204.5 200 201.5C230.72 197.148 260.22 201.315 288.5 214C288.545 205.49 288.045 196.99 287 188.5C288.068 176.99 289.234 165.49 290.5 154C293.697 145.408 296.697 136.742 299.5 128C304.833 120 310.167 112 315.5 104C339.382 85.117 363.549 66.617 388 48.5C396.333 45.5 404.667 42.5 413 39.5C420.82 38.685 428.487 37.852 436 37Z" fill="#47E4C1"/>
<ellipse cx="239.17" cy="442.876" rx="131.11" ry="221.939" transform="rotate(-37.5268 239.17 442.876)" fill="white" fill-opacity="0.22"/>
<path fill-rule="evenodd" clip-rule="evenodd" d="M588.36 448.89C645.786 404.782 631.812 290.223 557.149 193.013C482.485 95.8038 375.405 52.7561 317.979 96.8633C293.267 115.844 281.777 147.871 282.655 185.949C332.765 198.469 388.701 237.144 433.149 295.013C475.682 350.39 498.521 411.398 499.684 461.804C533.748 470.315 565.12 466.739 588.36 448.89Z" fill="black" fill-opacity="0.07"/>
<path opacity="0.99" fill-rule="evenodd" clip-rule="evenodd" d="M420.068 0.363603C455.035 -1.63392 488.454 4.59889 520.323 19.0619C578.926 47.1577 626.534 88.1352 663.146 141.994C691.673 183.254 710.769 228.607 720.435 278.054C726.934 313.695 724.547 348.705 713.273 383.083C704.392 406.819 690.468 427.109 671.501 443.952C651.259 460.569 630.306 476.217 608.642 490.896C578.754 508.04 546.661 514.538 512.366 510.39C506.875 546.97 490.432 577.603 463.034 602.291C441.342 620.537 418.532 637.246 394.606 652.418C358.564 670.392 320.902 674.635 281.621 665.149C249.151 657.001 219.182 643.475 191.709 624.57C115.667 570.54 65.6721 498.267 41.7249 407.749C31.5856 367.016 32.9118 326.702 45.7033 286.806C56.1003 258.899 73.2073 235.956 97.0242 217.98C114.348 204.37 132.118 191.373 150.334 178.992C180.223 161.849 212.316 155.35 246.611 159.498C252.102 122.919 268.545 92.2854 295.943 67.598C317.635 49.3519 340.445 32.6427 364.371 17.4706C381.972 8.28541 400.539 2.58306 420.068 0.363603ZM436.777 44.1257C449.838 45.595 462.834 47.5842 475.765 50.0932C486.109 54.0716 496.452 58.0499 506.796 62.0283C518.466 68.6589 530.136 75.2898 541.806 81.9202C600.438 124.781 642.211 180.346 667.124 248.614C669.918 260.052 672.835 271.457 675.877 282.828C677.285 295.006 678.479 307.206 679.457 319.429C678.579 330.867 677.385 342.272 675.877 353.643C672.586 363.251 669.137 372.799 665.533 382.287C660.781 389.294 655.874 396.189 650.813 402.974C627.739 420.612 604.664 438.249 581.589 455.887C572.572 459.069 563.554 462.252 554.537 465.435C545.378 465.993 536.227 466.655 527.086 467.424C522.989 466.737 518.878 466.207 514.753 465.833C512.905 430.595 504.684 396.911 490.087 364.782C501.916 356.274 512.924 346.726 523.107 336.138C543.82 309.585 547.533 280.675 534.247 249.409C522.445 223.815 503.746 205.117 478.152 193.314C451.318 183.727 426.121 186.909 402.563 202.863C394.995 208.311 387.436 213.748 379.886 219.174C353.004 197.768 323.299 181.059 290.771 169.046C290.507 165.315 290.772 161.601 291.566 157.907C294.484 149.42 297.401 140.933 300.319 132.445C305.628 123.946 311.331 115.724 317.426 107.78C340.348 90.5596 363.157 73.1876 385.854 55.6629C394.871 52.4802 403.889 49.2975 412.907 46.1148C421.007 45.7094 428.963 45.0464 436.777 44.1257ZM228.31 202.465C241.4 203.762 254.396 205.752 267.298 208.432C277.05 212.302 286.863 216.015 296.738 219.572C308.938 226.468 321.139 233.363 333.339 240.259C391.972 283.12 433.745 338.685 458.658 406.953C461.7 418.324 464.617 429.728 467.41 441.167C468.914 453.333 470.108 465.534 470.991 477.768C470.112 489.207 468.919 500.612 467.41 511.982C464.119 521.59 460.671 531.138 457.067 540.626C452.16 547.654 447.254 554.683 442.347 561.711C419.129 579.023 396.054 596.528 373.123 614.226C364.309 617.252 355.557 620.434 346.866 623.774C337.439 624.296 328.024 624.959 318.619 625.763C306.767 624.075 294.964 622.085 283.212 619.796C271.187 615.242 259.252 610.468 247.407 605.473C237.328 599.639 227.25 593.803 217.171 587.969C158.539 545.108 116.766 489.543 91.8523 421.275C88.8107 409.904 85.8933 398.5 83.0999 387.061C81.596 374.894 80.4025 362.693 79.5194 350.46C80.3981 339.021 81.5917 327.615 83.0999 316.246C86.3912 306.637 89.8391 297.089 93.4437 287.602C98.3504 280.574 103.257 273.545 108.164 266.516C131.381 249.205 154.456 231.7 177.387 214.002C186.201 210.976 194.953 207.793 203.644 204.454C212.012 204.082 220.234 203.42 228.31 202.465Z" fill="black"/>
</svg>
