<svg width="616" height="596" viewBox="0 0 616 596" fill="none" xmlns="http://www.w3.org/2000/svg">
<path opacity="0.999" fill-rule="evenodd" clip-rule="evenodd" d="M363 0C377.141 0.634 391.141 2.467 405 5.5C436.058 15.527 464.391 30.527 490 50.5C553.498 101.302 594.332 166.468 612.5 246C613.667 258.167 614.833 270.333 616 282.5C614.866 293.67 613.7 304.837 612.5 316C609.364 325.741 606.031 335.408 602.5 345C596.92 352.492 591.587 360.159 586.5 368C562.577 386.045 538.743 404.212 515 422.5C506.333 425.5 497.667 428.5 489 431.5C458.28 435.852 428.78 431.685 400.5 419C400.455 427.51 400.955 436.01 402 444.5C400.932 456.01 399.766 467.51 398.5 479C395.03 489.077 391.363 499.077 387.5 509C382.032 517.101 376.199 524.934 370 532.5C348 549.167 326 565.833 304 582.5C292.538 588.098 280.538 592.098 268 594.5C260.83 594.956 253.664 595.456 246.5 596C234.596 594.655 222.763 592.822 211 590.5C199.333 586.167 187.667 581.833 176 577.5C139.197 557.722 106.697 532.222 78.5 501C50.692 467.404 29.025 430.071 13.5 389C10.011 376.043 6.677 363.043 3.5 350C2.333 337.833 1.167 325.667 0 313.5C1.134 302.33 2.3 291.163 3.5 280C6.636 270.259 9.969 260.592 13.5 251C19.08 243.508 24.413 235.841 29.5 228C53.423 209.955 77.257 191.788 101 173.5C109.667 170.5 118.333 167.5 127 164.5C157.72 160.148 187.22 164.315 215.5 177C215.545 168.49 215.045 159.99 214 151.5C215.068 139.99 216.234 128.49 217.5 117C220.697 108.408 223.697 99.742 226.5 91C231.833 83 237.167 75 242.5 67C266.382 48.117 290.549 29.617 315 11.5C323.333 8.5 331.667 5.5 340 2.5C347.82 1.685 355.487 0.852 363 0Z" fill="#47E4C1"/>
<path fill-rule="evenodd" clip-rule="evenodd" d="M367 189C380.481 188.907 392.481 193.074 403 201.5C414.331 211.339 422.831 223.173 428.5 237C430.879 245.858 431.545 254.858 430.5 264C429.709 268.219 427.875 271.886 425 275C405.513 290.243 385.847 305.243 366 320C348.665 289.195 327.332 261.361 302 236.5C321.333 221.833 340.667 207.167 360 192.5C362.569 191.602 364.902 190.435 367 189Z" fill="#000100"/>
</svg>
