<svg width="449" height="227" viewBox="0 0 449 227" fill="none" xmlns="http://www.w3.org/2000/svg">
<rect y="7" width="449" height="117" fill="black"/>
<path d="M84.1293 53.9531H67.331C67.0241 51.7798 66.3977 49.8494 65.4517 48.1619C64.5057 46.4489 63.2912 44.9915 61.8082 43.7898C60.3253 42.5881 58.6122 41.6676 56.669 41.0284C54.7514 40.3892 52.6676 40.0696 50.4176 40.0696C46.3523 40.0696 42.8111 41.0795 39.794 43.0994C36.777 45.0937 34.4375 48.0085 32.7756 51.8438C31.1136 55.6534 30.2827 60.2812 30.2827 65.7273C30.2827 71.3267 31.1136 76.0312 32.7756 79.8409C34.4631 83.6506 36.8153 86.527 39.8324 88.4702C42.8494 90.4134 46.3395 91.3849 50.3026 91.3849C52.527 91.3849 54.5852 91.0909 56.4773 90.5028C58.3949 89.9148 60.0952 89.0582 61.5781 87.9332C63.0611 86.7827 64.2884 85.3892 65.2599 83.7528C66.2571 82.1165 66.9474 80.25 67.331 78.1534L84.1293 78.2301C83.6946 81.8352 82.608 85.3125 80.8693 88.6619C79.1563 91.9858 76.8423 94.9645 73.9276 97.598C71.0384 100.206 67.5866 102.277 63.5724 103.811C59.5838 105.32 55.071 106.074 50.0341 106.074C43.0284 106.074 36.7642 104.489 31.2415 101.318C25.7443 98.1477 21.3977 93.5582 18.2017 87.5497C15.0312 81.5412 13.446 74.267 13.446 65.7273C13.446 57.1619 15.0568 49.875 18.2784 43.8665C21.5 37.858 25.8722 33.2812 31.3949 30.1364C36.9176 26.9659 43.1307 25.3807 50.0341 25.3807C54.5852 25.3807 58.804 26.0199 62.6903 27.2983C66.6023 28.5767 70.0668 30.4432 73.0838 32.8977C76.1009 35.3267 78.5554 38.3054 80.4474 41.8338C82.3651 45.3622 83.5923 49.402 84.1293 53.9531ZM168.217 65.7273C168.217 74.2926 166.593 81.5795 163.346 87.5881C160.124 93.5966 155.727 98.1861 150.153 101.357C144.604 104.501 138.366 106.074 131.437 106.074C124.457 106.074 118.192 104.489 112.644 101.318C107.096 98.1477 102.711 93.5582 99.4893 87.5497C96.2678 81.5412 94.657 74.267 94.657 65.7273C94.657 57.1619 96.2678 49.875 99.4893 43.8665C102.711 37.858 107.096 33.2812 112.644 30.1364C118.192 26.9659 124.457 25.3807 131.437 25.3807C138.366 25.3807 144.604 26.9659 150.153 30.1364C155.727 33.2812 160.124 37.858 163.346 43.8665C166.593 49.875 168.217 57.1619 168.217 65.7273ZM151.38 65.7273C151.38 60.179 150.549 55.5 148.887 51.6903C147.251 47.8807 144.937 44.9915 141.945 43.0227C138.954 41.054 135.451 40.0696 131.437 40.0696C127.423 40.0696 123.92 41.054 120.928 43.0227C117.937 44.9915 115.61 47.8807 113.948 51.6903C112.312 55.5 111.494 60.179 111.494 65.7273C111.494 71.2756 112.312 75.9545 113.948 79.7642C115.61 83.5739 117.937 86.4631 120.928 88.4318C123.92 90.4006 127.423 91.3849 131.437 91.3849C135.451 91.3849 138.954 90.4006 141.945 88.4318C144.937 86.4631 147.251 83.5739 148.887 79.7642C150.549 75.9545 151.38 71.2756 151.38 65.7273ZM216.914 59.2457V72.2088H181.093V59.2457H216.914ZM258.987 105H231.143V26.4545H259.217C267.118 26.4545 273.919 28.027 279.62 31.1719C285.322 34.2912 289.707 38.7784 292.775 44.6335C295.869 50.4886 297.416 57.4943 297.416 65.6506C297.416 73.8324 295.869 80.8636 292.775 86.7443C289.707 92.625 285.297 97.1378 279.544 100.283C273.816 103.428 266.964 105 258.987 105ZM247.75 90.7713H258.297C263.206 90.7713 267.335 89.902 270.684 88.1634C274.059 86.3991 276.591 83.6761 278.278 79.9943C279.991 76.2869 280.848 71.5057 280.848 65.6506C280.848 59.8466 279.991 55.1037 278.278 51.4219C276.591 47.7401 274.072 45.0298 270.723 43.2912C267.373 41.5526 263.244 40.6832 258.335 40.6832H247.75V90.7713ZM309.717 105V26.4545H362.643V40.1463H326.324V58.8622H359.92V72.554H326.324V91.3082H362.797V105H309.717ZM418.456 49.044C418.149 45.9503 416.832 43.5469 414.505 41.8338C412.179 40.1207 409.021 39.2642 405.032 39.2642C402.322 39.2642 400.034 39.6477 398.167 40.4148C396.301 41.1562 394.869 42.1918 393.872 43.5213C392.9 44.8509 392.414 46.3594 392.414 48.0469C392.363 49.4531 392.657 50.6804 393.297 51.7287C393.961 52.777 394.869 53.6847 396.02 54.4517C397.17 55.1932 398.5 55.8452 400.008 56.4077C401.517 56.9446 403.127 57.4048 404.841 57.7884L411.897 59.4759C415.324 60.2429 418.468 61.2656 421.332 62.544C424.196 63.8224 426.676 65.3949 428.772 67.2614C430.869 69.1278 432.493 71.3267 433.643 73.858C434.819 76.3892 435.42 79.2912 435.446 82.5639C435.42 87.3707 434.193 91.5384 431.764 95.0668C429.36 98.5696 425.883 101.293 421.332 103.236C416.806 105.153 411.348 106.112 404.956 106.112C398.615 106.112 393.092 105.141 388.387 103.197C383.708 101.254 380.052 98.3778 377.419 94.5682C374.811 90.733 373.443 85.9901 373.315 80.3395H389.385C389.564 82.973 390.318 85.1719 391.647 86.9361C393.002 88.6747 394.805 89.9915 397.055 90.8864C399.331 91.7557 401.9 92.1903 404.764 92.1903C407.576 92.1903 410.018 91.7812 412.089 90.9631C414.186 90.1449 415.809 89.0071 416.96 87.5497C418.11 86.0923 418.686 84.4176 418.686 82.5256C418.686 80.7614 418.162 79.2784 417.113 78.0767C416.091 76.875 414.582 75.8523 412.588 75.0085C410.619 74.1648 408.203 73.3977 405.339 72.7074L396.787 70.5597C390.164 68.9489 384.936 66.4304 381.1 63.0043C377.265 59.5781 375.36 54.9631 375.386 49.1591C375.36 44.4034 376.626 40.2486 379.183 36.6946C381.765 33.1406 385.306 30.3665 389.806 28.3722C394.306 26.3778 399.42 25.3807 405.147 25.3807C410.977 25.3807 416.065 26.3778 420.412 28.3722C424.784 30.3665 428.184 33.1406 430.613 36.6946C433.042 40.2486 434.295 44.3651 434.372 49.044H418.456Z" fill="white"/>
<path d="M23.5938 206H9.09375L31.1875 142H48.625L70.6875 206H56.1875L40.1563 156.625H39.6562L23.5938 206ZM22.6875 180.844H56.9375V191.406H22.6875V180.844ZM89.4219 206H74.9219L97.0156 142H114.453L136.516 206H122.016L105.984 156.625H105.484L89.4219 206ZM88.5156 180.844H122.766V191.406H88.5156V180.844ZM144.219 206V142H157.75V194.844H185.188V206H144.219ZM183.719 153.156V142H236.281V153.156H216.688V206H203.313V153.156H183.719ZM300.828 174C300.828 180.979 299.505 186.917 296.859 191.812C294.234 196.708 290.651 200.448 286.109 203.031C281.589 205.594 276.505 206.875 270.859 206.875C265.172 206.875 260.068 205.583 255.547 203C251.026 200.417 247.453 196.677 244.828 191.781C242.203 186.885 240.891 180.958 240.891 174C240.891 167.021 242.203 161.083 244.828 156.188C247.453 151.292 251.026 147.562 255.547 145C260.068 142.417 265.172 141.125 270.859 141.125C276.505 141.125 281.589 142.417 286.109 145C290.651 147.562 294.234 151.292 296.859 156.188C299.505 161.083 300.828 167.021 300.828 174ZM287.109 174C287.109 169.479 286.432 165.667 285.078 162.562C283.745 159.458 281.859 157.104 279.422 155.5C276.984 153.896 274.13 153.094 270.859 153.094C267.589 153.094 264.734 153.896 262.297 155.5C259.859 157.104 257.964 159.458 256.609 162.562C255.276 165.667 254.609 169.479 254.609 174C254.609 178.521 255.276 182.333 256.609 185.437C257.964 188.542 259.859 190.896 262.297 192.5C264.734 194.104 267.589 194.906 270.859 194.906C274.13 194.906 276.984 194.104 279.422 192.5C281.859 190.896 283.745 188.542 285.078 185.437C286.432 182.333 287.109 178.521 287.109 174ZM344.75 142V206H331.219V142H344.75ZM369.414 142V206H355.883V142H369.414ZM437.016 164.406H423.328C423.078 162.635 422.568 161.062 421.797 159.687C421.026 158.292 420.036 157.104 418.828 156.125C417.62 155.146 416.224 154.396 414.641 153.875C413.078 153.354 411.38 153.094 409.547 153.094C406.234 153.094 403.349 153.917 400.891 155.562C398.432 157.187 396.526 159.562 395.172 162.688C393.818 165.792 393.141 169.562 393.141 174C393.141 178.562 393.818 182.396 395.172 185.5C396.547 188.604 398.464 190.948 400.922 192.531C403.38 194.115 406.224 194.906 409.453 194.906C411.266 194.906 412.943 194.667 414.484 194.188C416.047 193.708 417.432 193.01 418.641 192.094C419.849 191.156 420.849 190.021 421.641 188.688C422.453 187.354 423.016 185.833 423.328 184.125L437.016 184.187C436.661 187.125 435.776 189.958 434.359 192.688C432.964 195.396 431.078 197.823 428.703 199.969C426.349 202.094 423.536 203.781 420.266 205.031C417.016 206.26 413.339 206.875 409.234 206.875C403.526 206.875 398.422 205.583 393.922 203C389.443 200.417 385.901 196.677 383.297 191.781C380.714 186.885 379.422 180.958 379.422 174C379.422 167.021 380.734 161.083 383.359 156.188C385.984 151.292 389.547 147.562 394.047 145C398.547 142.417 403.609 141.125 409.234 141.125C412.943 141.125 416.38 141.646 419.547 142.687C422.734 143.729 425.557 145.25 428.016 147.25C430.474 149.229 432.474 151.656 434.016 154.531C435.578 157.406 436.578 160.698 437.016 164.406Z" fill="black"/>
</svg>
