<svg width="467" height="463" viewBox="0 0 467 463" fill="none" xmlns="http://www.w3.org/2000/svg">
<path d="M313.34 313.683L300.397 312.474L298.979 327.637L314.178 326.656L313.34 313.683ZM153.66 149.317L140.716 148.107L139.299 163.27L154.497 162.29L153.66 149.317ZM441 163.5C441 236.414 384.239 296.08 312.503 300.71L314.178 326.656C399.506 321.149 467 250.212 467 163.5H441ZM303.5 26C379.439 26 441 87.5608 441 163.5H467C467 73.2014 393.799 0 303.5 0V26ZM166.603 150.526C173.132 80.678 231.938 26 303.5 26V0C218.39 0 148.482 65.0203 140.716 148.107L166.603 150.526ZM154.497 162.29C157.471 162.098 160.473 162 163.5 162V136C159.914 136 156.354 136.116 152.822 136.344L154.497 162.29ZM163.5 162C239.439 162 301 223.561 301 299.5H327C327 209.201 253.799 136 163.5 136V162ZM301 299.5C301 303.879 300.796 308.206 300.397 312.474L326.284 314.893C326.758 309.823 327 304.688 327 299.5H301Z" fill="black"/>
<circle cx="163.5" cy="299.5" r="150.5" stroke="black" stroke-width="26"/>
<path d="M335.82 131.18L326.627 140.373L326.627 140.373L335.82 131.18ZM335.82 194.82L326.627 185.627L326.627 185.627L335.82 194.82ZM272.18 131.18L262.988 121.988L262.988 121.988L272.18 131.18ZM235.857 167.503L226.665 158.311L214.417 170.558L229.598 178.897L235.857 167.503ZM298.247 232.392L286.615 238.197L294.675 254.349L307.439 241.585L298.247 232.392ZM326.627 140.373C339.124 152.869 339.124 173.131 326.627 185.627L345.012 204.012C367.662 181.362 367.662 144.638 345.012 121.988L326.627 140.373ZM281.372 140.373C293.869 127.876 314.13 127.876 326.627 140.373L345.012 121.988C322.362 99.3374 285.638 99.3374 262.988 121.988L281.372 140.373ZM245.049 176.696L281.372 140.373L262.988 121.988L226.665 158.311L245.049 176.696ZM229.598 178.897C254.119 192.368 274.095 213.106 286.615 238.197L309.879 226.588C294.992 196.753 271.262 172.12 242.116 156.109L229.598 178.897ZM326.627 185.627L289.055 223.2L307.439 241.585L345.012 204.012L326.627 185.627Z" fill="black"/>
</svg>
