<svg width="199" height="41" viewBox="0 0 199 41" fill="none" xmlns="http://www.w3.org/2000/svg">
<rect width="199" height="41" rx="20.5" fill="#1E1E1E"/>
<path d="M25.358 12.4545L29.6761 24.6989H29.8466L34.1648 12.4545H36.0114L30.6705 27H28.8523L23.5114 12.4545H25.358ZM38.0497 27V16.0909H39.7259V27H38.0497ZM38.902 14.2727C38.5753 14.2727 38.2936 14.1615 38.0568 13.9389C37.8248 13.7164 37.7088 13.4489 37.7088 13.1364C37.7088 12.8239 37.8248 12.5563 38.0568 12.3338C38.2936 12.1113 38.5753 12 38.902 12C39.2287 12 39.508 12.1113 39.7401 12.3338C39.9768 12.5563 40.0952 12.8239 40.0952 13.1364C40.0952 13.4489 39.9768 13.7164 39.7401 13.9389C39.508 14.1615 39.2287 14.2727 38.902 14.2727ZM50.5231 18.5341L49.0174 18.9602C48.9227 18.7093 48.783 18.4654 48.5984 18.2287C48.4184 17.9872 48.1722 17.7884 47.8597 17.6321C47.5472 17.4759 47.1471 17.3977 46.6594 17.3977C45.9918 17.3977 45.4355 17.5516 44.9904 17.8594C44.5501 18.1624 44.3299 18.5483 44.3299 19.017C44.3299 19.4337 44.4814 19.7628 44.7844 20.0043C45.0875 20.2457 45.561 20.447 46.2049 20.608L47.8242 21.0057C48.7996 21.2424 49.5264 21.6046 50.0046 22.0923C50.4828 22.5753 50.7219 23.1979 50.7219 23.9602C50.7219 24.5852 50.542 25.1439 50.1822 25.6364C49.8271 26.1288 49.3299 26.517 48.6907 26.8011C48.0515 27.0852 47.3081 27.2273 46.4606 27.2273C45.3479 27.2273 44.427 26.9858 43.6978 26.5028C42.9686 26.0199 42.507 25.3144 42.3129 24.3864L43.9038 23.9886C44.0553 24.5758 44.3417 25.0161 44.7631 25.3097C45.1893 25.6032 45.7456 25.75 46.4322 25.75C47.2134 25.75 47.8337 25.5843 48.293 25.2528C48.757 24.9167 48.989 24.5142 48.989 24.0455C48.989 23.6667 48.8564 23.3494 48.5913 23.0938C48.3261 22.8333 47.9189 22.6392 47.3697 22.5114L45.5515 22.0852C44.5524 21.8485 43.8185 21.4815 43.3498 20.9844C42.8858 20.4825 42.6538 19.8551 42.6538 19.1023C42.6538 18.4867 42.8266 17.9422 43.1722 17.4688C43.5226 16.9953 43.9985 16.6236 44.5998 16.3537C45.2058 16.0838 45.8924 15.9489 46.6594 15.9489C47.739 15.9489 48.5865 16.1856 49.2021 16.6591C49.8223 17.1326 50.2627 17.7576 50.5231 18.5341ZM53.245 27V16.0909H54.9212V27H53.245ZM54.0973 14.2727C53.7706 14.2727 53.4889 14.1615 53.2521 13.9389C53.0201 13.7164 52.9041 13.4489 52.9041 13.1364C52.9041 12.8239 53.0201 12.5563 53.2521 12.3338C53.4889 12.1113 53.7706 12 54.0973 12C54.424 12 54.7034 12.1113 54.9354 12.3338C55.1721 12.5563 55.2905 12.8239 55.2905 13.1364C55.2905 13.4489 55.1721 13.7164 54.9354 13.9389C54.7034 14.1615 54.424 14.2727 54.0973 14.2727ZM62.7354 16.0909V17.5114H57.082V16.0909H62.7354ZM58.7298 13.4773H60.4059V23.875C60.4059 24.3485 60.4746 24.7036 60.6119 24.9403C60.7539 25.1723 60.9338 25.3286 61.1516 25.4091C61.3742 25.4848 61.6085 25.5227 61.8548 25.5227C62.0394 25.5227 62.1909 25.5133 62.3093 25.4943C62.4277 25.4706 62.5224 25.4517 62.5934 25.4375L62.9343 26.9432C62.8207 26.9858 62.6621 27.0284 62.4585 27.071C62.2549 27.1184 61.9968 27.142 61.6843 27.142C61.2108 27.142 60.7468 27.0402 60.2923 26.8366C59.8424 26.633 59.4684 26.3229 59.1701 25.9062C58.8765 25.4896 58.7298 24.964 58.7298 24.3295V13.4773ZM73.3533 27L70.0295 16.0909H71.7908L74.1488 24.4432H74.2624L76.592 16.0909H78.3817L80.6829 24.4148H80.7965L83.1545 16.0909H84.9158L81.592 27H79.9442L77.5579 18.6193H77.3874L75.0011 27H73.3533ZM91.3345 27.2273C90.2834 27.2273 89.3767 26.9953 88.6143 26.5312C87.8568 26.0625 87.272 25.4091 86.8601 24.571C86.4529 23.7282 86.2493 22.7481 86.2493 21.6307C86.2493 20.5133 86.4529 19.5284 86.8601 18.6761C87.272 17.8191 87.8449 17.1515 88.5788 16.6733C89.3175 16.1903 90.1792 15.9489 91.1641 15.9489C91.7322 15.9489 92.2933 16.0436 92.8473 16.233C93.4013 16.4223 93.9055 16.7301 94.3601 17.1562C94.8146 17.5777 95.1768 18.1364 95.4467 18.8324C95.7166 19.5284 95.8516 20.3854 95.8516 21.4034V22.1136H87.4425V20.6648H94.147C94.147 20.0492 94.0239 19.5 93.7777 19.017C93.5362 18.5341 93.1906 18.1529 92.7408 17.8736C92.2957 17.5942 91.7701 17.4545 91.1641 17.4545C90.4964 17.4545 89.9188 17.6203 89.4311 17.9517C88.9482 18.2784 88.5765 18.7045 88.3161 19.2301C88.0556 19.7557 87.9254 20.3191 87.9254 20.9205V21.8864C87.9254 22.7102 88.0675 23.4086 88.3516 23.9815C88.6404 24.5497 89.0405 24.983 89.5518 25.2812C90.0632 25.5748 90.6574 25.7216 91.3345 25.7216C91.7749 25.7216 92.1726 25.66 92.5277 25.5369C92.8875 25.4091 93.1977 25.2197 93.4581 24.9688C93.7185 24.7131 93.9197 24.3958 94.0618 24.017L95.6811 24.4716C95.5107 25.0208 95.2242 25.5038 94.8217 25.9205C94.4193 26.3324 93.9221 26.6544 93.3303 26.8864C92.7384 27.1136 92.0732 27.2273 91.3345 27.2273ZM98.6286 27V12.4545H100.305V17.8239H100.447C100.57 17.6345 100.74 17.393 100.958 17.0994C101.181 16.8011 101.498 16.536 101.91 16.304C102.326 16.0672 102.89 15.9489 103.6 15.9489C104.519 15.9489 105.328 16.1785 106.029 16.6378C106.73 17.0971 107.277 17.7481 107.67 18.5909C108.063 19.4337 108.259 20.428 108.259 21.5739C108.259 22.7292 108.063 23.7306 107.67 24.5781C107.277 25.4209 106.732 26.0743 106.036 26.5384C105.34 26.9976 104.538 27.2273 103.629 27.2273C102.928 27.2273 102.367 27.1113 101.945 26.8793C101.524 26.6425 101.2 26.375 100.972 26.0767C100.745 25.7737 100.57 25.5227 100.447 25.3239H100.248V27H98.6286ZM100.276 21.5455C100.276 22.3693 100.397 23.0961 100.638 23.7259C100.88 24.3509 101.233 24.8409 101.697 25.196C102.161 25.5464 102.729 25.7216 103.401 25.7216C104.102 25.7216 104.687 25.5369 105.156 25.1676C105.629 24.7936 105.984 24.2917 106.221 23.6619C106.462 23.0275 106.583 22.322 106.583 21.5455C106.583 20.7784 106.465 20.0871 106.228 19.4716C105.996 18.8513 105.643 18.3613 105.17 18.0014C104.701 17.6368 104.112 17.4545 103.401 17.4545C102.719 17.4545 102.147 17.6274 101.683 17.973C101.219 18.3139 100.868 18.7921 100.631 19.4077C100.395 20.0185 100.276 20.7311 100.276 21.5455ZM119.658 27.2557C118.967 27.2557 118.34 27.1255 117.776 26.8651C117.213 26.5999 116.765 26.2188 116.434 25.7216C116.103 25.2197 115.937 24.6136 115.937 23.9034C115.937 23.2784 116.06 22.7718 116.306 22.3835C116.552 21.9905 116.881 21.6828 117.293 21.4602C117.705 21.2377 118.16 21.072 118.657 20.9631C119.159 20.8494 119.663 20.7595 120.17 20.6932C120.833 20.608 121.37 20.544 121.782 20.5014C122.199 20.4541 122.502 20.3759 122.691 20.267C122.885 20.1581 122.982 19.9687 122.982 19.6989V19.642C122.982 18.9413 122.79 18.3968 122.407 18.0085C122.028 17.6203 121.453 17.4261 120.681 17.4261C119.881 17.4261 119.254 17.6013 118.799 17.9517C118.344 18.3021 118.025 18.6761 117.84 19.0739L116.249 18.5057C116.533 17.8428 116.912 17.3267 117.386 16.9574C117.864 16.5833 118.385 16.3229 118.948 16.1761C119.516 16.0246 120.075 15.9489 120.624 15.9489C120.975 15.9489 121.377 15.9915 121.832 16.0767C122.291 16.1572 122.734 16.3253 123.16 16.581C123.591 16.8366 123.948 17.2225 124.232 17.7386C124.516 18.2547 124.658 18.946 124.658 19.8125V27H122.982V25.5227H122.897C122.783 25.7595 122.594 26.0128 122.329 26.2827C122.064 26.5526 121.711 26.7822 121.271 26.9716C120.83 27.161 120.293 27.2557 119.658 27.2557ZM119.914 25.75C120.577 25.75 121.136 25.6198 121.59 25.3594C122.049 25.099 122.395 24.7628 122.627 24.3509C122.864 23.9389 122.982 23.5057 122.982 23.0511V21.517C122.911 21.6023 122.755 21.6804 122.513 21.7514C122.277 21.8177 122.002 21.8769 121.69 21.929C121.382 21.9763 121.081 22.0189 120.788 22.0568C120.499 22.09 120.264 22.1184 120.085 22.142C119.649 22.1989 119.242 22.2912 118.863 22.419C118.489 22.5421 118.186 22.7292 117.954 22.9801C117.727 23.2263 117.613 23.5625 117.613 23.9886C117.613 24.571 117.828 25.0114 118.259 25.3097C118.695 25.6032 119.246 25.75 119.914 25.75ZM127.718 31.0909V16.0909H129.337V17.8239H129.536C129.659 17.6345 129.829 17.393 130.047 17.0994C130.27 16.8011 130.587 16.536 130.999 16.304C131.416 16.0672 131.979 15.9489 132.689 15.9489C133.608 15.9489 134.417 16.1785 135.118 16.6378C135.819 17.0971 136.366 17.7481 136.759 18.5909C137.152 19.4337 137.348 20.428 137.348 21.5739C137.348 22.7292 137.152 23.7306 136.759 24.5781C136.366 25.4209 135.821 26.0743 135.125 26.5384C134.429 26.9976 133.627 27.2273 132.718 27.2273C132.017 27.2273 131.456 27.1113 131.034 26.8793C130.613 26.6425 130.289 26.375 130.061 26.0767C129.834 25.7737 129.659 25.5227 129.536 25.3239H129.394V31.0909H127.718ZM129.365 21.5455C129.365 22.3693 129.486 23.0961 129.728 23.7259C129.969 24.3509 130.322 24.8409 130.786 25.196C131.25 25.5464 131.818 25.7216 132.49 25.7216C133.191 25.7216 133.776 25.5369 134.245 25.1676C134.718 24.7936 135.073 24.2917 135.31 23.6619C135.551 23.0275 135.672 22.322 135.672 21.5455C135.672 20.7784 135.554 20.0871 135.317 19.4716C135.085 18.8513 134.732 18.3613 134.259 18.0014C133.79 17.6368 133.201 17.4545 132.49 17.4545C131.809 17.4545 131.236 17.6274 130.772 17.973C130.308 18.3139 129.957 18.7921 129.721 19.4077C129.484 20.0185 129.365 20.7311 129.365 21.5455ZM139.905 31.0909V16.0909H141.525V17.8239H141.723C141.846 17.6345 142.017 17.393 142.235 17.0994C142.457 16.8011 142.775 16.536 143.186 16.304C143.603 16.0672 144.167 15.9489 144.877 15.9489C145.795 15.9489 146.605 16.1785 147.306 16.6378C148.007 17.0971 148.553 17.7481 148.946 18.5909C149.339 19.4337 149.536 20.428 149.536 21.5739C149.536 22.7292 149.339 23.7306 148.946 24.5781C148.553 25.4209 148.009 26.0743 147.313 26.5384C146.617 26.9976 145.814 27.2273 144.905 27.2273C144.204 27.2273 143.643 27.1113 143.222 26.8793C142.801 26.6425 142.476 26.375 142.249 26.0767C142.022 25.7737 141.846 25.5227 141.723 25.3239H141.581V31.0909H139.905ZM141.553 21.5455C141.553 22.3693 141.674 23.0961 141.915 23.7259C142.157 24.3509 142.509 24.8409 142.973 25.196C143.437 25.5464 144.006 25.7216 144.678 25.7216C145.379 25.7216 145.963 25.5369 146.432 25.1676C146.906 24.7936 147.261 24.2917 147.498 23.6619C147.739 23.0275 147.86 22.322 147.86 21.5455C147.86 20.7784 147.741 20.0871 147.505 19.4716C147.273 18.8513 146.92 18.3613 146.446 18.0014C145.978 17.6368 145.388 17.4545 144.678 17.4545C143.996 17.4545 143.423 17.6274 142.959 17.973C142.495 18.3139 142.145 18.7921 141.908 19.4077C141.671 20.0185 141.553 20.7311 141.553 21.5455Z" fill="white"/>
<path d="M170.5 13L178 20.5M178 20.5L170.5 28M178 20.5H160" stroke="white" stroke-width="1.5" stroke-linecap="round" stroke-linejoin="round"/>
</svg>
