<svg width="995" height="161" viewBox="0 0 995 161" fill="none" xmlns="http://www.w3.org/2000/svg">
<rect width="270" height="58" rx="29" fill="#1E1E1E"/>
<path d="M30.3011 18.6364L36.3466 35.7784H36.5852L42.6307 18.6364H45.2159L37.7386 39H35.1932L27.7159 18.6364H30.3011ZM48.0696 39V23.7273H50.4162V39H48.0696ZM49.2628 21.1818C48.8054 21.1818 48.411 21.026 48.0795 20.7145C47.7547 20.4029 47.5923 20.0284 47.5923 19.5909C47.5923 19.1534 47.7547 18.7789 48.0795 18.4673C48.411 18.1558 48.8054 18 49.2628 18C49.7202 18 50.1113 18.1558 50.4361 18.4673C50.7675 18.7789 50.9332 19.1534 50.9332 19.5909C50.9332 20.0284 50.7675 20.4029 50.4361 20.7145C50.1113 21.026 49.7202 21.1818 49.2628 21.1818ZM65.5323 27.1477L63.4244 27.7443C63.2918 27.393 63.0962 27.0516 62.8377 26.7202C62.5858 26.3821 62.2411 26.1037 61.8036 25.8849C61.3661 25.6662 60.806 25.5568 60.1232 25.5568C59.1886 25.5568 58.4097 25.7723 57.7866 26.2031C57.1701 26.6274 56.8619 27.1676 56.8619 27.8239C56.8619 28.4072 57.074 28.8679 57.4982 29.206C57.9225 29.544 58.5853 29.8258 59.4869 30.0511L61.7539 30.608C63.1194 30.9394 64.137 31.4465 64.8065 32.1293C65.476 32.8054 65.8107 33.6771 65.8107 34.7443C65.8107 35.6193 65.5588 36.4015 65.055 37.0909C64.5579 37.7803 63.8619 38.3239 62.967 38.7216C62.0721 39.1193 61.0314 39.3182 59.8448 39.3182C58.2871 39.3182 56.9978 38.9801 55.9769 38.304C54.9561 37.6278 54.3098 36.6402 54.038 35.3409L56.2653 34.7841C56.4774 35.6061 56.8784 36.2225 57.4684 36.6335C58.065 37.0445 58.8439 37.25 59.805 37.25C60.8988 37.25 61.7672 37.018 62.4102 36.554C63.0598 36.0833 63.3846 35.5199 63.3846 34.8636C63.3846 34.3333 63.199 33.8892 62.8278 33.5312C62.4566 33.1667 61.8865 32.8949 61.1175 32.7159L58.5721 32.1193C57.1734 31.7879 56.146 31.2741 55.4897 30.5781C54.8401 29.8755 54.5153 28.9972 54.5153 27.9432C54.5153 27.0814 54.7572 26.3191 55.2411 25.6562C55.7317 24.9934 56.3978 24.473 57.2397 24.0952C58.0882 23.7173 59.0494 23.5284 60.1232 23.5284C61.6346 23.5284 62.8211 23.8598 63.6829 24.5227C64.5513 25.1856 65.1677 26.0606 65.5323 27.1477ZM69.343 39V23.7273H71.6896V39H69.343ZM70.5362 21.1818C70.0788 21.1818 69.6844 21.026 69.353 20.7145C69.0282 20.4029 68.8658 20.0284 68.8658 19.5909C68.8658 19.1534 69.0282 18.7789 69.353 18.4673C69.6844 18.1558 70.0788 18 70.5362 18C70.9936 18 71.3847 18.1558 71.7095 18.4673C72.041 18.7789 72.2067 19.1534 72.2067 19.5909C72.2067 20.0284 72.041 20.4029 71.7095 20.7145C71.3847 21.026 70.9936 21.1818 70.5362 21.1818ZM82.6296 23.7273V25.7159H74.7148V23.7273H82.6296ZM77.0217 20.0682H79.3683V34.625C79.3683 35.2879 79.4644 35.785 79.6566 36.1165C79.8555 36.4413 80.1074 36.66 80.4123 36.7727C80.7238 36.8788 81.052 36.9318 81.3967 36.9318C81.6552 36.9318 81.8673 36.9186 82.033 36.892C82.1987 36.8589 82.3313 36.8324 82.4308 36.8125L82.908 38.9205C82.7489 38.9801 82.5269 39.0398 82.2418 39.0994C81.9568 39.1657 81.5955 39.1989 81.158 39.1989C80.4951 39.1989 79.8455 39.0563 79.2092 38.7713C78.5794 38.4863 78.0558 38.0521 77.6381 37.4688C77.2272 36.8854 77.0217 36.1496 77.0217 35.2614V20.0682ZM97.4947 39L92.8413 23.7273H95.3072L98.6083 35.4205H98.7674L102.029 23.7273H104.534L107.756 35.3807H107.915L111.216 23.7273H113.682L109.029 39H106.722L103.381 27.267H103.142L99.8015 39H97.4947ZM122.668 39.3182C121.197 39.3182 119.927 38.9934 118.86 38.3438C117.799 37.6875 116.981 36.7727 116.404 35.5994C115.834 34.4195 115.549 33.0473 115.549 31.483C115.549 29.9186 115.834 28.5398 116.404 27.3466C116.981 26.1468 117.783 25.2121 118.81 24.5426C119.844 23.8665 121.051 23.5284 122.43 23.5284C123.225 23.5284 124.011 23.661 124.786 23.9261C125.562 24.1913 126.268 24.6222 126.904 25.2188C127.54 25.8087 128.048 26.5909 128.425 27.5653C128.803 28.5398 128.992 29.7396 128.992 31.1648V32.1591H117.219V30.1307H126.606C126.606 29.2689 126.433 28.5 126.089 27.8239C125.751 27.1477 125.267 26.6141 124.637 26.223C124.014 25.8319 123.278 25.6364 122.43 25.6364C121.495 25.6364 120.686 25.8684 120.004 26.3324C119.327 26.7898 118.807 27.3864 118.442 28.1222C118.078 28.858 117.896 29.6468 117.896 30.4886V31.8409C117.896 32.9943 118.094 33.9721 118.492 34.7741C118.897 35.5696 119.457 36.1761 120.173 36.5938C120.888 37.0047 121.72 37.2102 122.668 37.2102C123.285 37.2102 123.842 37.1241 124.339 36.9517C124.843 36.7727 125.277 36.5076 125.641 36.1562C126.006 35.7983 126.288 35.3542 126.487 34.8239L128.754 35.4602C128.515 36.2292 128.114 36.9053 127.55 37.4886C126.987 38.0653 126.291 38.5161 125.462 38.8409C124.634 39.1591 123.702 39.3182 122.668 39.3182ZM132.88 39V18.6364H135.227V26.1534H135.425C135.598 25.8883 135.836 25.5502 136.141 25.1392C136.453 24.7216 136.897 24.3504 137.474 24.0256C138.057 23.6941 138.846 23.5284 139.84 23.5284C141.126 23.5284 142.26 23.8499 143.241 24.4929C144.222 25.1359 144.987 26.0473 145.538 27.2273C146.088 28.4072 146.363 29.7992 146.363 31.4034C146.363 33.0208 146.088 34.4228 145.538 35.6094C144.987 36.7893 144.225 37.7041 143.251 38.3537C142.276 38.9967 141.153 39.3182 139.88 39.3182C138.899 39.3182 138.113 39.1558 137.523 38.831C136.933 38.4995 136.479 38.125 136.161 37.7074C135.843 37.2831 135.598 36.9318 135.425 36.6534H135.147V39H132.88ZM135.187 31.3636C135.187 32.517 135.356 33.5346 135.694 34.4162C136.032 35.2912 136.526 35.9773 137.175 36.4744C137.825 36.965 138.621 37.2102 139.562 37.2102C140.543 37.2102 141.362 36.9517 142.018 36.4347C142.681 35.911 143.178 35.2083 143.509 34.3267C143.847 33.4384 144.016 32.4508 144.016 31.3636C144.016 30.2898 143.851 29.322 143.519 28.4602C143.194 27.5919 142.701 26.9058 142.038 26.402C141.381 25.8916 140.556 25.6364 139.562 25.6364C138.607 25.6364 137.805 25.8783 137.156 26.3622C136.506 26.8395 136.015 27.509 135.684 28.3707C135.353 29.2259 135.187 30.2235 135.187 31.3636ZM162.322 39.358C161.354 39.358 160.476 39.1757 159.687 38.8111C158.898 38.4399 158.272 37.9062 157.808 37.2102C157.344 36.5076 157.112 35.6591 157.112 34.6648C157.112 33.7898 157.284 33.0805 157.629 32.5369C157.973 31.9867 158.434 31.5559 159.011 31.2443C159.587 30.9328 160.224 30.7008 160.92 30.5483C161.622 30.3892 162.328 30.2633 163.038 30.1705C163.966 30.0511 164.718 29.9616 165.295 29.902C165.878 29.8357 166.302 29.7263 166.567 29.5739C166.839 29.4214 166.975 29.1562 166.975 28.7784V28.6989C166.975 27.7178 166.707 26.9555 166.17 26.4119C165.639 25.8684 164.834 25.5966 163.754 25.5966C162.633 25.5966 161.755 25.8419 161.119 26.3324C160.482 26.8229 160.035 27.3466 159.776 27.9034L157.549 27.108C157.947 26.1799 158.477 25.4574 159.14 24.9403C159.809 24.4167 160.539 24.0521 161.327 23.8466C162.123 23.6345 162.905 23.5284 163.674 23.5284C164.165 23.5284 164.728 23.5881 165.364 23.7074C166.007 23.8201 166.627 24.0554 167.224 24.4134C167.827 24.7713 168.327 25.3116 168.725 26.0341C169.123 26.7566 169.322 27.7244 169.322 28.9375V39H166.975V36.9318H166.856C166.697 37.2633 166.432 37.6179 166.06 37.9957C165.689 38.3736 165.195 38.6951 164.579 38.9602C163.962 39.2254 163.21 39.358 162.322 39.358ZM162.68 37.25C163.608 37.25 164.39 37.0677 165.026 36.7031C165.669 36.3385 166.153 35.8679 166.478 35.2912C166.809 34.7145 166.975 34.108 166.975 33.4716V31.3239C166.876 31.4432 166.657 31.5526 166.319 31.652C165.987 31.7448 165.603 31.8277 165.165 31.9006C164.735 31.9669 164.314 32.0265 163.903 32.0795C163.498 32.1259 163.17 32.1657 162.918 32.1989C162.308 32.2784 161.738 32.4077 161.208 32.5866C160.684 32.759 160.26 33.0208 159.935 33.3722C159.617 33.7169 159.458 34.1875 159.458 34.7841C159.458 35.5994 159.76 36.2159 160.363 36.6335C160.973 37.0445 161.745 37.25 162.68 37.25ZM173.605 44.7273V23.7273H175.872V26.1534H176.15C176.323 25.8883 176.561 25.5502 176.866 25.1392C177.178 24.7216 177.622 24.3504 178.199 24.0256C178.782 23.6941 179.571 23.5284 180.565 23.5284C181.851 23.5284 182.984 23.8499 183.966 24.4929C184.947 25.1359 185.712 26.0473 186.262 27.2273C186.813 28.4072 187.088 29.7992 187.088 31.4034C187.088 33.0208 186.813 34.4228 186.262 35.6094C185.712 36.7893 184.95 37.7041 183.975 38.3537C183.001 38.9967 181.877 39.3182 180.605 39.3182C179.624 39.3182 178.838 39.1558 178.248 38.831C177.658 38.4995 177.204 38.125 176.886 37.7074C176.568 37.2831 176.323 36.9318 176.15 36.6534H175.951V44.7273H173.605ZM175.912 31.3636C175.912 32.517 176.081 33.5346 176.419 34.4162C176.757 35.2912 177.251 35.9773 177.9 36.4744C178.55 36.965 179.345 37.2102 180.287 37.2102C181.268 37.2102 182.086 36.9517 182.743 36.4347C183.405 35.911 183.903 35.2083 184.234 34.3267C184.572 33.4384 184.741 32.4508 184.741 31.3636C184.741 30.2898 184.575 29.322 184.244 28.4602C183.919 27.5919 183.425 26.9058 182.762 26.402C182.106 25.8916 181.281 25.6364 180.287 25.6364C179.332 25.6364 178.53 25.8783 177.88 26.3622C177.231 26.8395 176.74 27.509 176.409 28.3707C176.077 29.2259 175.912 30.2235 175.912 31.3636ZM190.667 44.7273V23.7273H192.934V26.1534H193.213C193.385 25.8883 193.624 25.5502 193.929 25.1392C194.24 24.7216 194.684 24.3504 195.261 24.0256C195.844 23.6941 196.633 23.5284 197.627 23.5284C198.913 23.5284 200.047 23.8499 201.028 24.4929C202.009 25.1359 202.775 26.0473 203.325 27.2273C203.875 28.4072 204.15 29.7992 204.15 31.4034C204.15 33.0208 203.875 34.4228 203.325 35.6094C202.775 36.7893 202.012 37.7041 201.038 38.3537C200.064 38.9967 198.94 39.3182 197.667 39.3182C196.686 39.3182 195.901 39.1558 195.311 38.831C194.721 38.4995 194.267 38.125 193.949 37.7074C193.63 37.2831 193.385 36.9318 193.213 36.6534H193.014V44.7273H190.667ZM192.974 31.3636C192.974 32.517 193.143 33.5346 193.481 34.4162C193.819 35.2912 194.313 35.9773 194.963 36.4744C195.612 36.965 196.408 37.2102 197.349 37.2102C198.33 37.2102 199.149 36.9517 199.805 36.4347C200.468 35.911 200.965 35.2083 201.297 34.3267C201.635 33.4384 201.804 32.4508 201.804 31.3636C201.804 30.2898 201.638 29.322 201.306 28.4602C200.982 27.5919 200.488 26.9058 199.825 26.402C199.169 25.8916 198.343 25.6364 197.349 25.6364C196.395 25.6364 195.592 25.8783 194.943 26.3622C194.293 26.8395 193.803 27.509 193.471 28.3707C193.14 29.2259 192.974 30.2235 192.974 31.3636Z" fill="white"/>
<path d="M234.4 18L245.4 29M245.4 29L234.4 40M245.4 29H219" stroke="white" stroke-width="1.5" stroke-linecap="round" stroke-linejoin="round"/>
</svg>
