<svg width="232" height="52" viewBox="0 0 232 52" fill="none" xmlns="http://www.w3.org/2000/svg">
<rect width="232" height="52" rx="26" fill="#1E1E1E"/>
<path d="M23.8295 16.5455L29.0114 31.2386H29.2159L34.3977 16.5455H36.6136L30.2045 34H28.0227L21.6136 16.5455H23.8295ZM39.0597 34V20.9091H41.071V34H39.0597ZM40.0824 18.7273C39.6903 18.7273 39.3523 18.5938 39.0682 18.3267C38.7898 18.0597 38.6506 17.7386 38.6506 17.3636C38.6506 16.9886 38.7898 16.6676 39.0682 16.4006C39.3523 16.1335 39.6903 16 40.0824 16C40.4744 16 40.8097 16.1335 41.0881 16.4006C41.3722 16.6676 41.5142 16.9886 41.5142 17.3636C41.5142 17.7386 41.3722 18.0597 41.0881 18.3267C40.8097 18.5938 40.4744 18.7273 40.0824 18.7273ZM54.0277 23.8409L52.2209 24.3523C52.1072 24.0511 51.9396 23.7585 51.718 23.4744C51.5021 23.1847 51.2067 22.946 50.8317 22.7585C50.4567 22.571 49.9766 22.4773 49.3913 22.4773C48.5902 22.4773 47.9226 22.6619 47.3885 23.0312C46.8601 23.3949 46.5959 23.858 46.5959 24.4205C46.5959 24.9205 46.7777 25.3153 47.1413 25.6051C47.505 25.8949 48.0732 26.1364 48.8459 26.3295L50.7891 26.8068C51.9595 27.0909 52.8317 27.5256 53.4055 28.1108C53.9794 28.6903 54.2663 29.4375 54.2663 30.3523C54.2663 31.1023 54.0504 31.7727 53.6186 32.3636C53.1925 32.9545 52.5959 33.4205 51.8288 33.7614C51.0618 34.1023 50.1697 34.2727 49.1527 34.2727C47.8175 34.2727 46.7124 33.983 45.8374 33.4034C44.9624 32.8239 44.4084 31.9773 44.1754 30.8636L46.0845 30.3864C46.2663 31.0909 46.6101 31.6193 47.1158 31.9716C47.6271 32.3239 48.2947 32.5 49.1186 32.5C50.0561 32.5 50.8004 32.3011 51.3516 31.9034C51.9084 31.5 52.1868 31.017 52.1868 30.4545C52.1868 30 52.0277 29.6193 51.7095 29.3125C51.3913 29 50.9027 28.767 50.2436 28.6136L48.0618 28.1023C46.8629 27.8182 45.9822 27.3778 45.4197 26.7812C44.8629 26.179 44.5845 25.4261 44.5845 24.5227C44.5845 23.7841 44.7919 23.1307 45.2067 22.5625C45.6271 21.9943 46.1982 21.5483 46.9197 21.2244C47.647 20.9006 48.4709 20.7386 49.3913 20.7386C50.6868 20.7386 51.7038 21.0227 52.4425 21.5909C53.1868 22.1591 53.7152 22.9091 54.0277 23.8409ZM57.294 34V20.9091H59.3054V34H57.294ZM58.3168 18.7273C57.9247 18.7273 57.5866 18.5938 57.3026 18.3267C57.0241 18.0597 56.8849 17.7386 56.8849 17.3636C56.8849 16.9886 57.0241 16.6676 57.3026 16.4006C57.5866 16.1335 57.9247 16 58.3168 16C58.7088 16 59.044 16.1335 59.3224 16.4006C59.6065 16.6676 59.7486 16.9886 59.7486 17.3636C59.7486 17.7386 59.6065 18.0597 59.3224 18.3267C59.044 18.5938 58.7088 18.7273 58.3168 18.7273ZM68.6825 20.9091V22.6136H61.8984V20.9091H68.6825ZM63.8757 17.7727H65.8871V30.25C65.8871 30.8182 65.9695 31.2443 66.1342 31.5284C66.3047 31.8068 66.5206 31.9943 66.782 32.0909C67.049 32.1818 67.3303 32.2273 67.6257 32.2273C67.8473 32.2273 68.0291 32.2159 68.1712 32.1932C68.3132 32.1648 68.4268 32.142 68.5121 32.125L68.9212 33.9318C68.7848 33.983 68.5945 34.0341 68.3501 34.0852C68.1058 34.142 67.7962 34.1705 67.4212 34.1705C66.853 34.1705 66.2962 34.0483 65.7507 33.804C65.2109 33.5597 64.7621 33.1875 64.4041 32.6875C64.0518 32.1875 63.8757 31.5568 63.8757 30.7955V17.7727ZM81.424 34L77.4354 20.9091H79.549L82.3786 30.9318H82.5149L85.3104 20.9091H87.4581L90.2195 30.8977H90.3558L93.1854 20.9091H95.299L91.3104 34H89.3331L86.4695 23.9432H86.2649L83.4013 34H81.424ZM103.001 34.2727C101.74 34.2727 100.652 33.9943 99.7372 33.4375C98.8281 32.875 98.1264 32.0909 97.6321 31.0852C97.1435 30.0739 96.8991 28.8977 96.8991 27.5568C96.8991 26.2159 97.1435 25.0341 97.6321 24.0114C98.1264 22.983 98.8139 22.1818 99.6946 21.608C100.581 21.0284 101.615 20.7386 102.797 20.7386C103.479 20.7386 104.152 20.8523 104.817 21.0795C105.482 21.3068 106.087 21.6761 106.632 22.1875C107.178 22.6932 107.612 23.3636 107.936 24.1989C108.26 25.0341 108.422 26.0625 108.422 27.2841V28.1364H98.331V26.3977H106.376C106.376 25.6591 106.229 25 105.933 24.4205C105.643 23.8409 105.229 23.3835 104.689 23.0483C104.155 22.7131 103.524 22.5455 102.797 22.5455C101.996 22.5455 101.303 22.7443 100.717 23.142C100.138 23.5341 99.6918 24.0455 99.3793 24.6761C99.0668 25.3068 98.9105 25.983 98.9105 26.7045V27.8636C98.9105 28.8523 99.081 29.6903 99.4219 30.3778C99.7685 31.0597 100.249 31.5795 100.862 31.9375C101.476 32.2898 102.189 32.4659 103.001 32.4659C103.53 32.4659 104.007 32.392 104.433 32.2443C104.865 32.0909 105.237 31.8636 105.55 31.5625C105.862 31.2557 106.104 30.875 106.274 30.4205L108.217 30.9659C108.013 31.625 107.669 32.2045 107.186 32.7045C106.703 33.1989 106.107 33.5852 105.396 33.8636C104.686 34.1364 103.888 34.2727 103.001 34.2727ZM111.754 34V16.5455H113.766V22.9886H113.936C114.084 22.7614 114.288 22.4716 114.55 22.1193C114.817 21.7614 115.197 21.4432 115.692 21.1648C116.192 20.8807 116.868 20.7386 117.72 20.7386C118.822 20.7386 119.794 21.0142 120.635 21.5653C121.476 22.1165 122.132 22.8977 122.604 23.9091C123.075 24.9205 123.311 26.1136 123.311 27.4886C123.311 28.875 123.075 30.0767 122.604 31.0938C122.132 32.1051 121.479 32.8892 120.643 33.446C119.808 33.9972 118.845 34.2727 117.754 34.2727C116.913 34.2727 116.24 34.1335 115.734 33.8551C115.229 33.571 114.839 33.25 114.567 32.892C114.294 32.5284 114.084 32.2273 113.936 31.9886H113.697V34H111.754ZM113.732 27.4545C113.732 28.4432 113.876 29.3153 114.166 30.071C114.456 30.821 114.879 31.4091 115.436 31.8352C115.993 32.2557 116.675 32.4659 117.482 32.4659C118.322 32.4659 119.024 32.2443 119.587 31.8011C120.155 31.3523 120.581 30.75 120.865 29.9943C121.155 29.233 121.3 28.3864 121.3 27.4545C121.3 26.5341 121.158 25.7045 120.874 24.9659C120.595 24.2216 120.172 23.6335 119.604 23.2017C119.041 22.7642 118.334 22.5455 117.482 22.5455C116.663 22.5455 115.976 22.7528 115.419 23.1676C114.862 23.5767 114.442 24.1506 114.158 24.8892C113.874 25.6222 113.732 26.4773 113.732 27.4545ZM136.99 34.3068C136.161 34.3068 135.408 34.1506 134.732 33.8381C134.055 33.5199 133.518 33.0625 133.121 32.4659C132.723 31.8636 132.524 31.1364 132.524 30.2841C132.524 29.5341 132.672 28.9261 132.967 28.4602C133.263 27.9886 133.658 27.6193 134.152 27.3523C134.646 27.0852 135.192 26.8864 135.788 26.7557C136.391 26.6193 136.996 26.5114 137.604 26.4318C138.399 26.3295 139.044 26.2528 139.538 26.2017C140.038 26.1449 140.402 26.0511 140.629 25.9205C140.862 25.7898 140.979 25.5625 140.979 25.2386V25.1705C140.979 24.3295 140.749 23.6761 140.288 23.2102C139.834 22.7443 139.143 22.5114 138.217 22.5114C137.257 22.5114 136.504 22.7216 135.959 23.142C135.413 23.5625 135.03 24.0114 134.808 24.4886L132.899 23.8068C133.24 23.0114 133.695 22.392 134.263 21.9489C134.837 21.5 135.462 21.1875 136.138 21.0114C136.82 20.8295 137.49 20.7386 138.149 20.7386C138.57 20.7386 139.053 20.7898 139.598 20.892C140.149 20.9886 140.68 21.1903 141.192 21.4972C141.709 21.804 142.138 22.267 142.479 22.8864C142.82 23.5057 142.99 24.3352 142.99 25.375V34H140.979V32.2273H140.876C140.74 32.5114 140.513 32.8153 140.195 33.1392C139.876 33.4631 139.453 33.7386 138.925 33.9659C138.396 34.1932 137.751 34.3068 136.99 34.3068ZM137.297 32.5C138.092 32.5 138.763 32.3438 139.308 32.0312C139.859 31.7188 140.274 31.3153 140.553 30.821C140.837 30.3267 140.979 29.8068 140.979 29.2614V27.4205C140.893 27.5227 140.706 27.6165 140.416 27.7017C140.132 27.7812 139.803 27.8523 139.428 27.9148C139.058 27.9716 138.697 28.0227 138.345 28.0682C137.999 28.108 137.717 28.142 137.501 28.1705C136.979 28.2386 136.49 28.3494 136.036 28.5028C135.587 28.6506 135.223 28.875 134.945 29.1761C134.672 29.4716 134.536 29.875 134.536 30.3864C134.536 31.0852 134.794 31.6136 135.311 31.9716C135.834 32.3239 136.496 32.5 137.297 32.5ZM146.661 38.9091V20.9091H148.604V22.9886H148.843C148.991 22.7614 149.195 22.4716 149.457 22.1193C149.724 21.7614 150.104 21.4432 150.599 21.1648C151.099 20.8807 151.775 20.7386 152.627 20.7386C153.729 20.7386 154.701 21.0142 155.542 21.5653C156.383 22.1165 157.039 22.8977 157.511 23.9091C157.982 24.9205 158.218 26.1136 158.218 27.4886C158.218 28.875 157.982 30.0767 157.511 31.0938C157.039 32.1051 156.386 32.8892 155.55 33.446C154.715 33.9972 153.752 34.2727 152.661 34.2727C151.82 34.2727 151.147 34.1335 150.641 33.8551C150.136 33.571 149.746 33.25 149.474 32.892C149.201 32.5284 148.991 32.2273 148.843 31.9886H148.673V38.9091H146.661ZM148.638 27.4545C148.638 28.4432 148.783 29.3153 149.073 30.071C149.363 30.821 149.786 31.4091 150.343 31.8352C150.9 32.2557 151.582 32.4659 152.388 32.4659C153.229 32.4659 153.931 32.2443 154.494 31.8011C155.062 31.3523 155.488 30.75 155.772 29.9943C156.062 29.233 156.207 28.3864 156.207 27.4545C156.207 26.5341 156.065 25.7045 155.781 24.9659C155.502 24.2216 155.079 23.6335 154.511 23.2017C153.948 22.7642 153.241 22.5455 152.388 22.5455C151.57 22.5455 150.883 22.7528 150.326 23.1676C149.769 23.5767 149.349 24.1506 149.065 24.8892C148.781 25.6222 148.638 26.4773 148.638 27.4545ZM161.286 38.9091V20.9091H163.229V22.9886H163.468C163.616 22.7614 163.82 22.4716 164.082 22.1193C164.349 21.7614 164.729 21.4432 165.224 21.1648C165.724 20.8807 166.4 20.7386 167.252 20.7386C168.354 20.7386 169.326 21.0142 170.167 21.5653C171.008 22.1165 171.664 22.8977 172.136 23.9091C172.607 24.9205 172.843 26.1136 172.843 27.4886C172.843 28.875 172.607 30.0767 172.136 31.0938C171.664 32.1051 171.011 32.8892 170.175 33.446C169.34 33.9972 168.377 34.2727 167.286 34.2727C166.445 34.2727 165.772 34.1335 165.266 33.8551C164.761 33.571 164.371 33.25 164.099 32.892C163.826 32.5284 163.616 32.2273 163.468 31.9886H163.298V38.9091H161.286ZM163.263 27.4545C163.263 28.4432 163.408 29.3153 163.698 30.071C163.988 30.821 164.411 31.4091 164.968 31.8352C165.525 32.2557 166.207 32.4659 167.013 32.4659C167.854 32.4659 168.556 32.2443 169.119 31.8011C169.687 31.3523 170.113 30.75 170.397 29.9943C170.687 29.233 170.832 28.3864 170.832 27.4545C170.832 26.5341 170.69 25.7045 170.406 24.9659C170.127 24.2216 169.704 23.6335 169.136 23.2017C168.573 22.7642 167.866 22.5455 167.013 22.5455C166.195 22.5455 165.508 22.7528 164.951 23.1676C164.394 23.5767 163.974 24.1506 163.69 24.8892C163.406 25.6222 163.263 26.4773 163.263 27.4545Z" fill="white"/>
<path d="M200.7 15L211.2 25.5M211.2 25.5L200.7 36M211.2 25.5H186" stroke="white" stroke-width="1.5" stroke-linecap="round" stroke-linejoin="round"/>
</svg>
