<svg width="990" height="154" viewBox="0 0 990 154" fill="none" xmlns="http://www.w3.org/2000/svg">
<rect width="198" height="43" rx="21.5" fill="#1E1E1E"/>
<path d="M23.358 14.4545L27.6761 26.6989H27.8466L32.1648 14.4545H34.0114L28.6705 29H26.8523L21.5114 14.4545H23.358ZM36.0497 29V18.0909H37.7259V29H36.0497ZM36.902 16.2727C36.5753 16.2727 36.2936 16.1615 36.0568 15.9389C35.8248 15.7164 35.7088 15.4489 35.7088 15.1364C35.7088 14.8239 35.8248 14.5563 36.0568 14.3338C36.2936 14.1113 36.5753 14 36.902 14C37.2287 14 37.508 14.1113 37.7401 14.3338C37.9768 14.5563 38.0952 14.8239 38.0952 15.1364C38.0952 15.4489 37.9768 15.7164 37.7401 15.9389C37.508 16.1615 37.2287 16.2727 36.902 16.2727ZM48.5231 20.5341L47.0174 20.9602C46.9227 20.7093 46.783 20.4654 46.5984 20.2287C46.4184 19.9872 46.1722 19.7884 45.8597 19.6321C45.5472 19.4759 45.1471 19.3977 44.6594 19.3977C43.9918 19.3977 43.4355 19.5516 42.9904 19.8594C42.5501 20.1624 42.3299 20.5483 42.3299 21.017C42.3299 21.4337 42.4814 21.7628 42.7844 22.0043C43.0875 22.2457 43.561 22.447 44.2049 22.608L45.8242 23.0057C46.7996 23.2424 47.5264 23.6046 48.0046 24.0923C48.4828 24.5753 48.7219 25.1979 48.7219 25.9602C48.7219 26.5852 48.542 27.1439 48.1822 27.6364C47.8271 28.1288 47.3299 28.517 46.6907 28.8011C46.0515 29.0852 45.3081 29.2273 44.4606 29.2273C43.3479 29.2273 42.427 28.9858 41.6978 28.5028C40.9686 28.0199 40.507 27.3144 40.3129 26.3864L41.9038 25.9886C42.0553 26.5758 42.3417 27.0161 42.7631 27.3097C43.1893 27.6032 43.7456 27.75 44.4322 27.75C45.2134 27.75 45.8337 27.5843 46.293 27.2528C46.757 26.9167 46.989 26.5142 46.989 26.0455C46.989 25.6667 46.8564 25.3494 46.5913 25.0938C46.3261 24.8333 45.9189 24.6392 45.3697 24.5114L43.5515 24.0852C42.5524 23.8485 41.8185 23.4815 41.3498 22.9844C40.8858 22.4825 40.6538 21.8551 40.6538 21.1023C40.6538 20.4867 40.8266 19.9422 41.1722 19.4688C41.5226 18.9953 41.9985 18.6236 42.5998 18.3537C43.2058 18.0838 43.8924 17.9489 44.6594 17.9489C45.739 17.9489 46.5865 18.1856 47.2021 18.6591C47.8223 19.1326 48.2627 19.7576 48.5231 20.5341ZM51.245 29V18.0909H52.9212V29H51.245ZM52.0973 16.2727C51.7706 16.2727 51.4889 16.1615 51.2521 15.9389C51.0201 15.7164 50.9041 15.4489 50.9041 15.1364C50.9041 14.8239 51.0201 14.5563 51.2521 14.3338C51.4889 14.1113 51.7706 14 52.0973 14C52.424 14 52.7034 14.1113 52.9354 14.3338C53.1721 14.5563 53.2905 14.8239 53.2905 15.1364C53.2905 15.4489 53.1721 15.7164 52.9354 15.9389C52.7034 16.1615 52.424 16.2727 52.0973 16.2727ZM60.7354 18.0909V19.5114H55.082V18.0909H60.7354ZM56.7298 15.4773H58.4059V25.875C58.4059 26.3485 58.4746 26.7036 58.6119 26.9403C58.7539 27.1723 58.9338 27.3286 59.1516 27.4091C59.3742 27.4848 59.6085 27.5227 59.8548 27.5227C60.0394 27.5227 60.1909 27.5133 60.3093 27.4943C60.4277 27.4706 60.5224 27.4517 60.5934 27.4375L60.9343 28.9432C60.8207 28.9858 60.6621 29.0284 60.4585 29.071C60.2549 29.1184 59.9968 29.142 59.6843 29.142C59.2108 29.142 58.7468 29.0402 58.2923 28.8366C57.8424 28.633 57.4684 28.3229 57.1701 27.9062C56.8765 27.4896 56.7298 26.964 56.7298 26.3295V15.4773ZM71.3533 29L68.0295 18.0909H69.7908L72.1488 26.4432H72.2624L74.592 18.0909H76.3817L78.6829 26.4148H78.7965L81.1545 18.0909H82.9158L79.592 29H77.9442L75.5579 20.6193H75.3874L73.0011 29H71.3533ZM89.3345 29.2273C88.2834 29.2273 87.3767 28.9953 86.6143 28.5312C85.8568 28.0625 85.272 27.4091 84.8601 26.571C84.4529 25.7282 84.2493 24.7481 84.2493 23.6307C84.2493 22.5133 84.4529 21.5284 84.8601 20.6761C85.272 19.8191 85.8449 19.1515 86.5788 18.6733C87.3175 18.1903 88.1792 17.9489 89.1641 17.9489C89.7322 17.9489 90.2933 18.0436 90.8473 18.233C91.4013 18.4223 91.9055 18.7301 92.3601 19.1562C92.8146 19.5777 93.1768 20.1364 93.4467 20.8324C93.7166 21.5284 93.8516 22.3854 93.8516 23.4034V24.1136H85.4425V22.6648H92.147C92.147 22.0492 92.0239 21.5 91.7777 21.017C91.5362 20.5341 91.1906 20.1529 90.7408 19.8736C90.2957 19.5942 89.7701 19.4545 89.1641 19.4545C88.4964 19.4545 87.9188 19.6203 87.4311 19.9517C86.9482 20.2784 86.5765 20.7045 86.3161 21.2301C86.0556 21.7557 85.9254 22.3191 85.9254 22.9205V23.8864C85.9254 24.7102 86.0675 25.4086 86.3516 25.9815C86.6404 26.5497 87.0405 26.983 87.5518 27.2812C88.0632 27.5748 88.6574 27.7216 89.3345 27.7216C89.7749 27.7216 90.1726 27.66 90.5277 27.5369C90.8875 27.4091 91.1977 27.2197 91.4581 26.9688C91.7185 26.7131 91.9197 26.3958 92.0618 26.017L93.6811 26.4716C93.5107 27.0208 93.2242 27.5038 92.8217 27.9205C92.4193 28.3324 91.9221 28.6544 91.3303 28.8864C90.7384 29.1136 90.0732 29.2273 89.3345 29.2273ZM96.6286 29V14.4545H98.3047V19.8239H98.4467C98.5698 19.6345 98.7403 19.393 98.9581 19.0994C99.1806 18.8011 99.4979 18.536 99.9098 18.304C100.326 18.0672 100.89 17.9489 101.6 17.9489C102.519 17.9489 103.328 18.1785 104.029 18.6378C104.73 19.0971 105.277 19.7481 105.67 20.5909C106.063 21.4337 106.259 22.428 106.259 23.5739C106.259 24.7292 106.063 25.7306 105.67 26.5781C105.277 27.4209 104.732 28.0743 104.036 28.5384C103.34 28.9976 102.538 29.2273 101.629 29.2273C100.928 29.2273 100.367 29.1113 99.9453 28.8793C99.5239 28.6425 99.1996 28.375 98.9723 28.0767C98.745 27.7737 98.5698 27.5227 98.4467 27.3239H98.2479V29H96.6286ZM98.2763 23.5455C98.2763 24.3693 98.397 25.0961 98.6385 25.7259C98.88 26.3509 99.2327 26.8409 99.6967 27.196C100.161 27.5464 100.729 27.7216 101.401 27.7216C102.102 27.7216 102.687 27.5369 103.156 27.1676C103.629 26.7936 103.984 26.2917 104.221 25.6619C104.462 25.0275 104.583 24.322 104.583 23.5455C104.583 22.7784 104.465 22.0871 104.228 21.4716C103.996 20.8513 103.643 20.3613 103.17 20.0014C102.701 19.6368 102.112 19.4545 101.401 19.4545C100.719 19.4545 100.147 19.6274 99.6825 19.973C99.2185 20.3139 98.8681 20.7921 98.6314 21.4077C98.3946 22.0185 98.2763 22.7311 98.2763 23.5455ZM117.658 29.2557C116.967 29.2557 116.34 29.1255 115.776 28.8651C115.213 28.5999 114.765 28.2188 114.434 27.7216C114.103 27.2197 113.937 26.6136 113.937 25.9034C113.937 25.2784 114.06 24.7718 114.306 24.3835C114.552 23.9905 114.881 23.6828 115.293 23.4602C115.705 23.2377 116.16 23.072 116.657 22.9631C117.159 22.8494 117.663 22.7595 118.17 22.6932C118.833 22.608 119.37 22.544 119.782 22.5014C120.199 22.4541 120.502 22.3759 120.691 22.267C120.885 22.1581 120.982 21.9687 120.982 21.6989V21.642C120.982 20.9413 120.79 20.3968 120.407 20.0085C120.028 19.6203 119.453 19.4261 118.681 19.4261C117.881 19.4261 117.254 19.6013 116.799 19.9517C116.344 20.3021 116.025 20.6761 115.84 21.0739L114.249 20.5057C114.533 19.8428 114.912 19.3267 115.386 18.9574C115.864 18.5833 116.385 18.3229 116.948 18.1761C117.516 18.0246 118.075 17.9489 118.624 17.9489C118.975 17.9489 119.377 17.9915 119.832 18.0767C120.291 18.1572 120.734 18.3253 121.16 18.581C121.591 18.8366 121.948 19.2225 122.232 19.7386C122.516 20.2547 122.658 20.946 122.658 21.8125V29H120.982V27.5227H120.897C120.783 27.7595 120.594 28.0128 120.329 28.2827C120.064 28.5526 119.711 28.7822 119.271 28.9716C118.83 29.161 118.293 29.2557 117.658 29.2557ZM117.914 27.75C118.577 27.75 119.136 27.6198 119.59 27.3594C120.049 27.099 120.395 26.7628 120.627 26.3509C120.864 25.9389 120.982 25.5057 120.982 25.0511V23.517C120.911 23.6023 120.755 23.6804 120.513 23.7514C120.277 23.8177 120.002 23.8769 119.69 23.929C119.382 23.9763 119.081 24.0189 118.788 24.0568C118.499 24.09 118.264 24.1184 118.085 24.142C117.649 24.1989 117.242 24.2912 116.863 24.419C116.489 24.5421 116.186 24.7292 115.954 24.9801C115.727 25.2263 115.613 25.5625 115.613 25.9886C115.613 26.571 115.828 27.0114 116.259 27.3097C116.695 27.6032 117.246 27.75 117.914 27.75ZM125.718 33.0909V18.0909H127.337V19.8239H127.536C127.659 19.6345 127.829 19.393 128.047 19.0994C128.27 18.8011 128.587 18.536 128.999 18.304C129.416 18.0672 129.979 17.9489 130.689 17.9489C131.608 17.9489 132.417 18.1785 133.118 18.6378C133.819 19.0971 134.366 19.7481 134.759 20.5909C135.152 21.4337 135.348 22.428 135.348 23.5739C135.348 24.7292 135.152 25.7306 134.759 26.5781C134.366 27.4209 133.821 28.0743 133.125 28.5384C132.429 28.9976 131.627 29.2273 130.718 29.2273C130.017 29.2273 129.456 29.1113 129.034 28.8793C128.613 28.6425 128.289 28.375 128.061 28.0767C127.834 27.7737 127.659 27.5227 127.536 27.3239H127.394V33.0909H125.718ZM127.365 23.5455C127.365 24.3693 127.486 25.0961 127.728 25.7259C127.969 26.3509 128.322 26.8409 128.786 27.196C129.25 27.5464 129.818 27.7216 130.49 27.7216C131.191 27.7216 131.776 27.5369 132.245 27.1676C132.718 26.7936 133.073 26.2917 133.31 25.6619C133.551 25.0275 133.672 24.322 133.672 23.5455C133.672 22.7784 133.554 22.0871 133.317 21.4716C133.085 20.8513 132.732 20.3613 132.259 20.0014C131.79 19.6368 131.201 19.4545 130.49 19.4545C129.809 19.4545 129.236 19.6274 128.772 19.973C128.308 20.3139 127.957 20.7921 127.721 21.4077C127.484 22.0185 127.365 22.7311 127.365 23.5455ZM137.905 33.0909V18.0909H139.525V19.8239H139.723C139.846 19.6345 140.017 19.393 140.235 19.0994C140.457 18.8011 140.775 18.536 141.186 18.304C141.603 18.0672 142.167 17.9489 142.877 17.9489C143.795 17.9489 144.605 18.1785 145.306 18.6378C146.007 19.0971 146.553 19.7481 146.946 20.5909C147.339 21.4337 147.536 22.428 147.536 23.5739C147.536 24.7292 147.339 25.7306 146.946 26.5781C146.553 27.4209 146.009 28.0743 145.313 28.5384C144.617 28.9976 143.814 29.2273 142.905 29.2273C142.204 29.2273 141.643 29.1113 141.222 28.8793C140.801 28.6425 140.476 28.375 140.249 28.0767C140.022 27.7737 139.846 27.5227 139.723 27.3239H139.581V33.0909H137.905ZM139.553 23.5455C139.553 24.3693 139.674 25.0961 139.915 25.7259C140.157 26.3509 140.509 26.8409 140.973 27.196C141.437 27.5464 142.006 27.7216 142.678 27.7216C143.379 27.7216 143.963 27.5369 144.432 27.1676C144.906 26.7936 145.261 26.2917 145.498 25.6619C145.739 25.0275 145.86 24.322 145.86 23.5455C145.86 22.7784 145.741 22.0871 145.505 21.4716C145.273 20.8513 144.92 20.3613 144.446 20.0014C143.978 19.6368 143.388 19.4545 142.678 19.4545C141.996 19.4545 141.423 19.6274 140.959 19.973C140.495 20.3139 140.145 20.7921 139.908 21.4077C139.671 22.0185 139.553 22.7311 139.553 23.5455Z" fill="white"/>
<path d="M170.083 14L178 21.9167M178 21.9167L170.083 29.8333M178 21.9167H159" stroke="white" stroke-width="1.5" stroke-linecap="round" stroke-linejoin="round"/>
</svg>
