<svg width="1183" height="239" viewBox="0 0 1183 239" fill="none" xmlns="http://www.w3.org/2000/svg">
<rect width="1183" height="239" rx="119.5" fill="#1E1E1E"/>
<path d="M134.619 74.8182L161.392 150.733H162.449L189.222 74.8182H200.67L167.557 165H156.284L123.17 74.8182H134.619ZM213.308 165V97.3636H223.7V165H213.308ZM218.592 86.0909C216.567 86.0909 214.82 85.401 213.352 84.0213C211.914 82.6416 211.195 80.983 211.195 79.0455C211.195 77.108 211.914 75.4493 213.352 74.0696C214.82 72.6899 216.567 72 218.592 72C220.618 72 222.35 72.6899 223.788 74.0696C225.256 75.4493 225.99 77.108 225.99 79.0455C225.99 80.983 225.256 82.6416 223.788 84.0213C222.35 85.401 220.618 86.0909 218.592 86.0909ZM290.643 112.511L281.308 115.153C280.721 113.598 279.855 112.086 278.71 110.618C277.594 109.121 276.068 107.888 274.13 106.919C272.193 105.95 269.712 105.466 266.689 105.466C262.549 105.466 259.1 106.42 256.341 108.328C253.61 110.207 252.245 112.599 252.245 115.506C252.245 118.089 253.185 120.129 255.064 121.626C256.942 123.124 259.878 124.371 263.87 125.369L273.91 127.835C279.958 129.303 284.464 131.549 287.429 134.572C290.394 137.567 291.876 141.427 291.876 146.153C291.876 150.028 290.761 153.492 288.529 156.545C286.328 159.598 283.245 162.006 279.282 163.767C275.319 165.528 270.71 166.409 265.456 166.409C258.557 166.409 252.847 164.912 248.326 161.918C243.806 158.923 240.943 154.549 239.74 148.795L249.603 146.33C250.543 149.97 252.319 152.7 254.931 154.52C257.574 156.34 261.023 157.25 265.279 157.25C270.123 157.25 273.969 156.223 276.816 154.168C279.693 152.083 281.132 149.588 281.132 146.682C281.132 144.333 280.31 142.366 278.666 140.781C277.022 139.167 274.497 137.963 271.092 137.17L259.819 134.528C253.625 133.061 249.075 130.786 246.169 127.703C243.292 124.591 241.853 120.702 241.853 116.034C241.853 112.218 242.925 108.842 245.068 105.906C247.24 102.971 250.19 100.666 253.919 98.9929C257.676 97.3196 261.933 96.483 266.689 96.483C273.382 96.483 278.636 97.9508 282.453 100.886C286.298 103.822 289.029 107.697 290.643 112.511ZM307.519 165V97.3636H317.911V165H307.519ZM312.803 86.0909C310.778 86.0909 309.031 85.401 307.563 84.0213C306.125 82.6416 305.406 80.983 305.406 79.0455C305.406 77.108 306.125 75.4493 307.563 74.0696C309.031 72.6899 310.778 72 312.803 72C314.829 72 316.561 72.6899 317.999 74.0696C319.467 75.4493 320.201 77.108 320.201 79.0455C320.201 80.983 319.467 82.6416 317.999 84.0213C316.561 85.401 314.829 86.0909 312.803 86.0909ZM366.36 97.3636V106.17H331.309V97.3636H366.36ZM341.525 81.1591H351.917V145.625C351.917 148.561 352.342 150.762 353.194 152.23C354.074 153.669 355.19 154.637 356.54 155.136C357.92 155.606 359.373 155.841 360.9 155.841C362.044 155.841 362.984 155.782 363.718 155.665C364.452 155.518 365.039 155.401 365.479 155.312L367.593 164.648C366.888 164.912 365.905 165.176 364.642 165.44C363.38 165.734 361.78 165.881 359.843 165.881C356.907 165.881 354.03 165.25 351.212 163.987C348.423 162.725 346.104 160.802 344.255 158.219C342.435 155.635 341.525 152.377 341.525 148.443V81.1591ZM432.191 165L411.583 97.3636H422.503L437.123 149.148H437.827L452.27 97.3636H463.367L477.634 148.972H478.338L492.958 97.3636H503.878L483.27 165H473.054L458.259 113.04H457.202L442.407 165H432.191ZM543.674 166.409C537.157 166.409 531.535 164.971 526.809 162.094C522.112 159.188 518.487 155.136 515.933 149.94C513.408 144.715 512.146 138.638 512.146 131.71C512.146 124.782 513.408 118.676 515.933 113.392C518.487 108.079 522.039 103.939 526.589 100.974C531.168 97.9801 536.511 96.483 542.617 96.483C546.14 96.483 549.619 97.0701 553.053 98.2443C556.488 99.4186 559.614 101.327 562.433 103.969C565.251 106.581 567.496 110.045 569.17 114.361C570.843 118.676 571.68 123.99 571.68 130.301V134.705H519.543V125.722H561.112C561.112 121.905 560.348 118.5 558.822 115.506C557.325 112.511 555.182 110.148 552.393 108.416C549.633 106.684 546.375 105.818 542.617 105.818C538.478 105.818 534.897 106.846 531.873 108.901C528.879 110.926 526.574 113.568 524.96 116.827C523.345 120.085 522.538 123.579 522.538 127.307V133.295C522.538 138.403 523.418 142.733 525.18 146.286C526.97 149.808 529.451 152.494 532.621 154.344C535.792 156.164 539.476 157.074 543.674 157.074C546.404 157.074 548.87 156.692 551.072 155.929C553.303 155.136 555.226 153.962 556.84 152.406C558.455 150.821 559.702 148.854 560.583 146.506L570.623 149.324C569.566 152.729 567.79 155.723 565.295 158.307C562.799 160.861 559.717 162.857 556.048 164.295C552.378 165.705 548.254 166.409 543.674 166.409ZM588.897 165V74.8182H599.289V108.108H600.17C600.933 106.934 601.99 105.437 603.34 103.616C604.72 101.767 606.687 100.123 609.241 98.6847C611.824 97.2169 615.317 96.483 619.721 96.483C625.416 96.483 630.436 97.9067 634.781 100.754C639.125 103.602 642.516 107.638 644.952 112.864C647.389 118.089 648.607 124.254 648.607 131.358C648.607 138.521 647.389 144.73 644.952 149.984C642.516 155.21 639.14 159.261 634.825 162.138C630.509 164.985 625.533 166.409 619.897 166.409C615.552 166.409 612.074 165.69 609.461 164.251C606.848 162.784 604.837 161.125 603.428 159.276C602.019 157.397 600.933 155.841 600.17 154.608H598.937V165H588.897ZM599.113 131.182C599.113 136.29 599.862 140.796 601.359 144.7C602.856 148.575 605.043 151.614 607.92 153.815C610.797 155.988 614.319 157.074 618.488 157.074C622.833 157.074 626.458 155.929 629.364 153.639C632.3 151.32 634.502 148.208 635.969 144.304C637.467 140.37 638.215 135.996 638.215 131.182C638.215 126.426 637.481 122.14 636.013 118.324C634.575 114.478 632.388 111.44 629.452 109.209C626.546 106.948 622.891 105.818 618.488 105.818C614.261 105.818 610.709 106.89 607.832 109.033C604.955 111.146 602.782 114.111 601.315 117.928C599.847 121.714 599.113 126.133 599.113 131.182ZM719.282 166.585C714.996 166.585 711.106 165.778 707.613 164.163C704.12 162.519 701.345 160.156 699.29 157.074C697.236 153.962 696.208 150.205 696.208 145.801C696.208 141.926 696.971 138.785 698.498 136.378C700.024 133.941 702.065 132.033 704.619 130.653C707.173 129.274 709.991 128.246 713.073 127.571C716.185 126.866 719.311 126.309 722.452 125.898C726.562 125.369 729.894 124.973 732.448 124.709C735.031 124.415 736.91 123.931 738.085 123.256C739.288 122.58 739.89 121.406 739.89 119.733V119.381C739.89 115.036 738.701 111.66 736.323 109.253C733.975 106.846 730.408 105.642 725.623 105.642C720.662 105.642 716.772 106.728 713.954 108.901C711.136 111.073 709.154 113.392 708.009 115.858L698.146 112.335C699.907 108.225 702.255 105.026 705.191 102.736C708.156 100.417 711.385 98.8021 714.879 97.892C718.401 96.9527 721.865 96.483 725.271 96.483C727.443 96.483 729.938 96.7472 732.756 97.2756C735.604 97.7746 738.349 98.8168 740.991 100.402C743.662 101.987 745.879 104.38 747.64 107.58C749.401 110.779 750.282 115.065 750.282 120.438V165H739.89V155.841H739.362C738.657 157.309 737.483 158.879 735.839 160.553C734.195 162.226 732.008 163.65 729.278 164.824C726.548 165.998 723.216 166.585 719.282 166.585ZM720.867 157.25C724.977 157.25 728.441 156.443 731.259 154.828C734.107 153.214 736.25 151.129 737.688 148.575C739.156 146.021 739.89 143.335 739.89 140.517V131.006C739.45 131.534 738.481 132.018 736.984 132.459C735.516 132.87 733.813 133.237 731.876 133.56C729.968 133.853 728.103 134.117 726.283 134.352C724.493 134.558 723.04 134.734 721.924 134.881C719.223 135.233 716.699 135.805 714.35 136.598C712.031 137.361 710.152 138.521 708.714 140.077C707.305 141.603 706.6 143.687 706.6 146.33C706.6 149.94 707.936 152.67 710.607 154.52C713.308 156.34 716.728 157.25 720.867 157.25ZM769.25 190.364V97.3636H779.289V108.108H780.522C781.286 106.934 782.342 105.437 783.693 103.616C785.073 101.767 787.039 100.123 789.593 98.6847C792.177 97.2169 795.67 96.483 800.074 96.483C805.769 96.483 810.788 97.9067 815.133 100.754C819.478 103.602 822.868 107.638 825.305 112.864C827.742 118.089 828.96 124.254 828.96 131.358C828.96 138.521 827.742 144.73 825.305 149.984C822.868 155.21 819.493 159.261 815.177 162.138C810.862 164.985 805.886 166.409 800.25 166.409C795.905 166.409 792.426 165.69 789.814 164.251C787.201 162.784 785.19 161.125 783.781 159.276C782.372 157.397 781.286 155.841 780.522 154.608H779.642V190.364H769.25ZM779.466 131.182C779.466 136.29 780.214 140.796 781.711 144.7C783.208 148.575 785.395 151.614 788.272 153.815C791.149 155.988 794.672 157.074 798.841 157.074C803.185 157.074 806.811 155.929 809.717 153.639C812.653 151.32 814.854 148.208 816.322 144.304C817.819 140.37 818.568 135.996 818.568 131.182C818.568 126.426 817.834 122.14 816.366 118.324C814.928 114.478 812.741 111.44 809.805 109.209C806.899 106.948 803.244 105.818 798.841 105.818C794.613 105.818 791.061 106.89 788.184 109.033C785.307 111.146 783.135 114.111 781.667 117.928C780.199 121.714 779.466 126.133 779.466 131.182ZM844.812 190.364V97.3636H854.852V108.108H856.085C856.848 106.934 857.905 105.437 859.255 103.616C860.635 101.767 862.602 100.123 865.156 98.6847C867.739 97.2169 871.233 96.483 875.636 96.483C881.331 96.483 886.351 97.9067 890.696 100.754C895.04 103.602 898.431 107.638 900.868 112.864C903.304 118.089 904.522 124.254 904.522 131.358C904.522 138.521 903.304 144.73 900.868 149.984C898.431 155.21 895.055 159.261 890.74 162.138C886.424 164.985 881.449 166.409 875.812 166.409C871.467 166.409 867.989 165.69 865.376 164.251C862.763 162.784 860.752 161.125 859.343 159.276C857.934 157.397 856.848 155.841 856.085 154.608H855.204V190.364H844.812ZM855.028 131.182C855.028 136.29 855.777 140.796 857.274 144.7C858.771 148.575 860.958 151.614 863.835 153.815C866.712 155.988 870.234 157.074 874.403 157.074C878.748 157.074 882.373 155.929 885.279 153.639C888.215 151.32 890.417 148.208 891.885 144.304C893.382 140.37 894.13 135.996 894.13 131.182C894.13 126.426 893.396 122.14 891.929 118.324C890.49 114.478 888.303 111.44 885.368 109.209C882.461 106.948 878.806 105.818 874.403 105.818C870.176 105.818 866.624 106.89 863.747 109.033C860.87 111.146 858.698 114.111 857.23 117.928C855.762 121.714 855.028 126.133 855.028 131.182Z" fill="white"/>
<path d="M1021.94 71L1069.75 118.812M1069.75 118.812L1021.94 166.625M1069.75 118.812H955" stroke="white" stroke-width="8" stroke-linecap="round" stroke-linejoin="round"/>
</svg>
